<?xml version="1.0" encoding="UTF-8" standalone="no"?>
<!DOCTYPE svg PUBLIC "-//W3C//DTD SVG 1.1//EN"
 "http://www.w3.org/Graphics/SVG/1.1/DTD/svg11.dtd">
<!-- Generated by graphviz version 2.38.0 (20140413.2041)
 -->
<!-- Title: snakemake_dag Pages: 1 -->
<svg width="1374pt" height="908pt"
 viewBox="0.00 0.00 1374.18 908.00" xmlns="http://www.w3.org/2000/svg" xmlns:xlink="http://www.w3.org/1999/xlink">
<g id="graph0" class="graph" transform="scale(1 1) rotate(0) translate(4 904)">
<title>snakemake_dag</title>
<polygon fill="white" stroke="none" points="-4,4 -4,-904 1370.18,-904 1370.18,4 -4,4"/>
<!-- 0 -->
<g id="node1" class="node"><title>0</title>
<path fill="none" stroke="#d88556" stroke-width="2" d="M444.684,-36C444.684,-36 414.684,-36 414.684,-36 408.684,-36 402.684,-30 402.684,-24 402.684,-24 402.684,-12 402.684,-12 402.684,-6 408.684,-0 414.684,-0 414.684,-0 444.684,-0 444.684,-0 450.684,-0 456.684,-6 456.684,-12 456.684,-12 456.684,-24 456.684,-24 456.684,-30 450.684,-36 444.684,-36"/>
<text text-anchor="middle" x="429.684" y="-15.5" font-family="sans" font-size="10.00">all</text>
</g>
<!-- 1 -->
<g id="node2" class="node"><title>1</title>
<path fill="none" stroke="#d86e56" stroke-width="2" d="M108.184,-468C108.184,-468 77.1842,-468 77.1842,-468 71.1842,-468 65.1842,-462 65.1842,-456 65.1842,-456 65.1842,-444 65.1842,-444 65.1842,-438 71.1842,-432 77.1842,-432 77.1842,-432 108.184,-432 108.184,-432 114.184,-432 120.184,-438 120.184,-444 120.184,-444 120.184,-456 120.184,-456 120.184,-462 114.184,-468 108.184,-468"/>
<text text-anchor="middle" x="92.6842" y="-447.5" font-family="sans" font-size="10.00">kraken2</text>
</g>
<!-- 1&#45;&gt;0 -->
<g id="edge13" class="edge"><title>1&#45;&gt;0</title>
<path fill="none" stroke="grey" stroke-width="2" d="M72.7103,-431.955C46.1956,-407.31 2.68421,-358.953 2.68421,-307 2.68421,-307 2.68421,-307 2.68421,-161 2.68421,-120.553 -8.05262,-99.4166 21.6842,-72 75.2297,-22.6323 302.364,-18.2847 392.553,-18.5587"/>
<polygon fill="grey" stroke="grey" stroke-width="2" points="392.584,-22.0588 402.602,-18.6105 392.621,-15.0589 392.584,-22.0588"/>
</g>
<!-- 2 -->
<g id="node3" class="node"><title>2</title>
<path fill="none" stroke="#56d8c1" stroke-width="2" d="M154.184,-108C154.184,-108 115.184,-108 115.184,-108 109.184,-108 103.184,-102 103.184,-96 103.184,-96 103.184,-84 103.184,-84 103.184,-78 109.184,-72 115.184,-72 115.184,-72 154.184,-72 154.184,-72 160.184,-72 166.184,-78 166.184,-84 166.184,-84 166.184,-96 166.184,-96 166.184,-102 160.184,-108 154.184,-108"/>
<text text-anchor="middle" x="134.684" y="-87.5" font-family="sans" font-size="10.00">amrfinder</text>
</g>
<!-- 2&#45;&gt;0 -->
<g id="edge11" class="edge"><title>2&#45;&gt;0</title>
<path fill="none" stroke="grey" stroke-width="2" d="M166.349,-74.8762C169.142,-73.8336 171.948,-72.8567 174.684,-72 250.422,-48.2892 342.172,-32.1779 392.377,-24.3911"/>
<polygon fill="grey" stroke="grey" stroke-width="2" points="393.081,-27.8242 402.438,-22.856 392.025,-20.9043 393.081,-27.8242"/>
</g>
<!-- 3 -->
<g id="node4" class="node"><title>3</title>
<path fill="none" stroke="#56d8a9" stroke-width="2" d="M351.684,-108C351.684,-108 321.684,-108 321.684,-108 315.684,-108 309.684,-102 309.684,-96 309.684,-96 309.684,-84 309.684,-84 309.684,-78 315.684,-72 321.684,-72 321.684,-72 351.684,-72 351.684,-72 357.684,-72 363.684,-78 363.684,-84 363.684,-84 363.684,-96 363.684,-96 363.684,-102 357.684,-108 351.684,-108"/>
<text text-anchor="middle" x="336.684" y="-87.5" font-family="sans" font-size="10.00">mlst</text>
</g>
<!-- 3&#45;&gt;0 -->
<g id="edge2" class="edge"><title>3&#45;&gt;0</title>
<path fill="none" stroke="grey" stroke-width="2" d="M359.673,-71.6966C371.498,-62.796 386.076,-51.8232 398.863,-42.1989"/>
<polygon fill="grey" stroke="grey" stroke-width="2" points="401.075,-44.9145 406.96,-36.1043 396.865,-39.3217 401.075,-44.9145"/>
</g>
<!-- 4 -->
<g id="node5" class="node"><title>4</title>
<path fill="none" stroke="#56c9d8" stroke-width="2" d="M72.6842,-108C72.6842,-108 42.6842,-108 42.6842,-108 36.6842,-108 30.6842,-102 30.6842,-96 30.6842,-96 30.6842,-84 30.6842,-84 30.6842,-78 36.6842,-72 42.6842,-72 42.6842,-72 72.6842,-72 72.6842,-72 78.6842,-72 84.6842,-78 84.6842,-84 84.6842,-84 84.6842,-96 84.6842,-96 84.6842,-102 78.6842,-108 72.6842,-108"/>
<text text-anchor="middle" x="57.6842" y="-87.5" font-family="sans" font-size="10.00">prokka</text>
</g>
<!-- 4&#45;&gt;0 -->
<g id="edge1" class="edge"><title>4&#45;&gt;0</title>
<path fill="none" stroke="grey" stroke-width="2" d="M84.8797,-75.1759C87.807,-73.985 90.7778,-72.8953 93.6842,-72 199.053,-39.5425 329.44,-26.238 392.312,-21.4134"/>
<polygon fill="grey" stroke="grey" stroke-width="2" points="392.813,-24.886 402.528,-20.6591 392.297,-17.905 392.813,-24.886"/>
</g>
<!-- 5 -->
<g id="node6" class="node"><title>5</title>
<path fill="none" stroke="#56d8b1" stroke-width="2" d="M346.684,-180C346.684,-180 316.684,-180 316.684,-180 310.684,-180 304.684,-174 304.684,-168 304.684,-168 304.684,-156 304.684,-156 304.684,-150 310.684,-144 316.684,-144 316.684,-144 346.684,-144 346.684,-144 352.684,-144 358.684,-150 358.684,-156 358.684,-156 358.684,-168 358.684,-168 358.684,-174 352.684,-180 346.684,-180"/>
<text text-anchor="middle" x="331.684" y="-159.5" font-family="sans" font-size="10.00">multiqc</text>
</g>
<!-- 5&#45;&gt;0 -->
<g id="edge10" class="edge"><title>5&#45;&gt;0</title>
<path fill="none" stroke="grey" stroke-width="2" d="M345.75,-143.628C353.855,-133.421 364.105,-120.171 372.684,-108 387.358,-87.1835 402.877,-62.7758 414.01,-44.791"/>
<polygon fill="grey" stroke="grey" stroke-width="2" points="417.145,-46.3756 419.405,-36.0247 411.183,-42.707 417.145,-46.3756"/>
</g>
<!-- 6 -->
<g id="node7" class="node"><title>6</title>
<path fill="none" stroke="#5692d8" stroke-width="2" d="M279.184,-108C279.184,-108 196.184,-108 196.184,-108 190.184,-108 184.184,-102 184.184,-96 184.184,-96 184.184,-84 184.184,-84 184.184,-78 190.184,-72 196.184,-72 196.184,-72 279.184,-72 279.184,-72 285.184,-72 291.184,-78 291.184,-84 291.184,-84 291.184,-96 291.184,-96 291.184,-102 285.184,-108 279.184,-108"/>
<text text-anchor="middle" x="237.684" y="-87.5" font-family="sans" font-size="10.00">abricate_summary</text>
</g>
<!-- 6&#45;&gt;0 -->
<g id="edge9" class="edge"><title>6&#45;&gt;0</title>
<path fill="none" stroke="grey" stroke-width="2" d="M284.653,-71.8761C318.011,-59.714 362.168,-43.6154 392.958,-32.3897"/>
<polygon fill="grey" stroke="grey" stroke-width="2" points="394.259,-35.6411 402.455,-28.9274 391.861,-29.0645 394.259,-35.6411"/>
</g>
<!-- 7 -->
<g id="node8" class="node"><title>7</title>
<path fill="none" stroke="#d8b456" stroke-width="2" d="M1289.68,-108C1289.68,-108 1259.68,-108 1259.68,-108 1253.68,-108 1247.68,-102 1247.68,-96 1247.68,-96 1247.68,-84 1247.68,-84 1247.68,-78 1253.68,-72 1259.68,-72 1259.68,-72 1289.68,-72 1289.68,-72 1295.68,-72 1301.68,-78 1301.68,-84 1301.68,-84 1301.68,-96 1301.68,-96 1301.68,-102 1295.68,-108 1289.68,-108"/>
<text text-anchor="middle" x="1274.68" y="-87.5" font-family="sans" font-size="10.00">fastqc</text>
</g>
<!-- 7&#45;&gt;0 -->
<g id="edge6" class="edge"><title>7&#45;&gt;0</title>
<path fill="none" stroke="grey" stroke-width="2" d="M1247.3,-76.2129C1242.83,-74.544 1238.19,-73.0515 1233.68,-72 1084.99,-37.2721 605.204,-23.2313 467.161,-19.8498"/>
<polygon fill="grey" stroke="grey" stroke-width="2" points="467.161,-16.3489 457.08,-19.6071 466.992,-23.3469 467.161,-16.3489"/>
</g>
<!-- 8 -->
<g id="node9" class="node"><title>8</title>
<path fill="none" stroke="#56d863" stroke-width="2" d="M484.184,-468C484.184,-468 389.184,-468 389.184,-468 383.184,-468 377.184,-462 377.184,-456 377.184,-456 377.184,-444 377.184,-444 377.184,-438 383.184,-432 389.184,-432 389.184,-432 484.184,-432 484.184,-432 490.184,-432 496.184,-438 496.184,-444 496.184,-444 496.184,-456 496.184,-456 496.184,-462 490.184,-468 484.184,-468"/>
<text text-anchor="middle" x="436.684" y="-447.5" font-family="sans" font-size="10.00">prokka_ESBL_contigs</text>
</g>
<!-- 8&#45;&gt;0 -->
<g id="edge5" class="edge"><title>8&#45;&gt;0</title>
<path fill="none" stroke="grey" stroke-width="2" d="M426.324,-431.759C411.679,-405.704 386.684,-354.307 386.684,-307 386.684,-307 386.684,-307 386.684,-233 386.684,-164.499 408.124,-86.0374 420.725,-45.8362"/>
<polygon fill="grey" stroke="grey" stroke-width="2" points="424.082,-46.8303 423.795,-36.2394 417.415,-44.6975 424.082,-46.8303"/>
</g>
<!-- 9 -->
<g id="node10" class="node"><title>9</title>
<path fill="none" stroke="#d89556" stroke-width="2" d="M1180.68,-324C1180.68,-324 1106.68,-324 1106.68,-324 1100.68,-324 1094.68,-318 1094.68,-312 1094.68,-312 1094.68,-300 1094.68,-300 1094.68,-294 1100.68,-288 1106.68,-288 1106.68,-288 1180.68,-288 1180.68,-288 1186.68,-288 1192.68,-294 1192.68,-300 1192.68,-300 1192.68,-312 1192.68,-312 1192.68,-318 1186.68,-324 1180.68,-324"/>
<text text-anchor="middle" x="1143.68" y="-303.5" font-family="sans" font-size="10.00">kraken2_controls</text>
</g>
<!-- 9&#45;&gt;0 -->
<g id="edge3" class="edge"><title>9&#45;&gt;0</title>
<path fill="none" stroke="grey" stroke-width="2" d="M1144.48,-287.575C1144.99,-255.179 1141.41,-185.232 1104.68,-144 1018.9,-47.7033 595.762,-24.8879 466.956,-20.1346"/>
<polygon fill="grey" stroke="grey" stroke-width="2" points="466.922,-16.6313 456.805,-19.7753 466.675,-23.6269 466.922,-16.6313"/>
</g>
<!-- 10 -->
<g id="node11" class="node"><title>10</title>
<path fill="none" stroke="#56d86b" stroke-width="2" d="M1241.18,-180C1241.18,-180 1184.18,-180 1184.18,-180 1178.18,-180 1172.18,-174 1172.18,-168 1172.18,-168 1172.18,-156 1172.18,-156 1172.18,-150 1178.18,-144 1184.18,-144 1184.18,-144 1241.18,-144 1241.18,-144 1247.18,-144 1253.18,-150 1253.18,-156 1253.18,-156 1253.18,-168 1253.18,-168 1253.18,-174 1247.18,-180 1241.18,-180"/>
<text text-anchor="middle" x="1212.68" y="-159.5" font-family="sans" font-size="10.00">mlst_controls</text>
</g>
<!-- 10&#45;&gt;0 -->
<g id="edge7" class="edge"><title>10&#45;&gt;0</title>
<path fill="none" stroke="grey" stroke-width="2" d="M1207.43,-143.773C1200.04,-122.804 1184.4,-88.1954 1157.68,-72 1098.34,-36.0263 607.569,-22.8114 467.109,-19.7456"/>
<polygon fill="grey" stroke="grey" stroke-width="2" points="466.931,-16.2411 456.858,-19.5264 466.781,-23.2395 466.931,-16.2411"/>
</g>
<!-- 11 -->
<g id="node12" class="node"><title>11</title>
<path fill="none" stroke="#d86656" stroke-width="2" d="M1354.18,-180C1354.18,-180 1283.18,-180 1283.18,-180 1277.18,-180 1271.18,-174 1271.18,-168 1271.18,-168 1271.18,-156 1271.18,-156 1271.18,-150 1277.18,-144 1283.18,-144 1283.18,-144 1354.18,-144 1354.18,-144 1360.18,-144 1366.18,-150 1366.18,-156 1366.18,-156 1366.18,-168 1366.18,-168 1366.18,-174 1360.18,-180 1354.18,-180"/>
<text text-anchor="middle" x="1318.68" y="-159.5" font-family="sans" font-size="10.00">multiqc_controls</text>
</g>
<!-- 11&#45;&gt;0 -->
<g id="edge8" class="edge"><title>11&#45;&gt;0</title>
<path fill="none" stroke="grey" stroke-width="2" d="M1292.21,-143.83C1276.54,-133.578 1256.37,-120.216 1238.68,-108 1216.15,-92.4353 1214.44,-81.309 1188.68,-72 1053.67,-23.1962 600.746,-19.0594 467.105,-18.9223"/>
<polygon fill="grey" stroke="grey" stroke-width="2" points="466.964,-15.4224 456.963,-18.9192 466.962,-22.4224 466.964,-15.4224"/>
</g>
<!-- 12 -->
<g id="node13" class="node"><title>12</title>
<path fill="none" stroke="#88d856" stroke-width="2" d="M907.184,-108C907.184,-108 746.184,-108 746.184,-108 740.184,-108 734.184,-102 734.184,-96 734.184,-96 734.184,-84 734.184,-84 734.184,-78 740.184,-72 746.184,-72 746.184,-72 907.184,-72 907.184,-72 913.184,-72 919.184,-78 919.184,-84 919.184,-84 919.184,-96 919.184,-96 919.184,-102 913.184,-108 907.184,-108"/>
<text text-anchor="middle" x="826.684" y="-87.5" font-family="sans" font-size="10.00">comparison_phylogroups_withST38</text>
</g>
<!-- 12&#45;&gt;0 -->
<g id="edge4" class="edge"><title>12&#45;&gt;0</title>
<path fill="none" stroke="grey" stroke-width="2" d="M734.106,-72.6765C648.986,-57.6678 527.115,-36.1792 466.642,-25.5164"/>
<polygon fill="grey" stroke="grey" stroke-width="2" points="467.238,-22.0676 456.782,-23.7779 466.022,-28.9613 467.238,-22.0676"/>
</g>
<!-- 13 -->
<g id="node14" class="node"><title>13</title>
<path fill="none" stroke="#d89c56" stroke-width="2" d="M652.684,-108C652.684,-108 476.684,-108 476.684,-108 470.684,-108 464.684,-102 464.684,-96 464.684,-96 464.684,-84 464.684,-84 464.684,-78 470.684,-72 476.684,-72 476.684,-72 652.684,-72 652.684,-72 658.684,-72 664.684,-78 664.684,-84 664.684,-84 664.684,-96 664.684,-96 664.684,-102 658.684,-108 652.684,-108"/>
<text text-anchor="middle" x="564.684" y="-87.5" font-family="sans" font-size="10.00">comparison_phylogroups_withoutST38</text>
</g>
<!-- 13&#45;&gt;0 -->
<g id="edge12" class="edge"><title>13&#45;&gt;0</title>
<path fill="none" stroke="grey" stroke-width="2" d="M531.659,-71.8761C511.758,-61.5567 486.391,-48.4034 465.936,-37.7973"/>
<polygon fill="grey" stroke="grey" stroke-width="2" points="467.41,-34.6188 456.921,-33.1228 464.187,-40.8331 467.41,-34.6188"/>
</g>
<!-- 14 -->
<g id="node15" class="node"><title>14</title>
<path fill="none" stroke="#bed856" stroke-width="2" d="M382.684,-900C382.684,-900 352.684,-900 352.684,-900 346.684,-900 340.684,-894 340.684,-888 340.684,-888 340.684,-876 340.684,-876 340.684,-870 346.684,-864 352.684,-864 352.684,-864 382.684,-864 382.684,-864 388.684,-864 394.684,-870 394.684,-876 394.684,-876 394.684,-888 394.684,-888 394.684,-894 388.684,-900 382.684,-900"/>
<text text-anchor="middle" x="367.684" y="-879.5" font-family="sans" font-size="10.00">fastp</text>
</g>
<!-- 14&#45;&gt;1 -->
<g id="edge14" class="edge"><title>14&#45;&gt;1</title>
<path fill="none" stroke="grey" stroke-width="2" d="M340.307,-875.351C284.896,-862.144 164.684,-823.729 164.684,-739 164.684,-739 164.684,-739 164.684,-593 164.684,-548.355 136.022,-503.519 114.866,-476.505"/>
<polygon fill="grey" stroke="grey" stroke-width="2" points="117.313,-473.964 108.307,-468.383 111.867,-478.362 117.313,-473.964"/>
</g>
<!-- 14&#45;&gt;5 -->
<g id="edge18" class="edge"><title>14&#45;&gt;5</title>
<path fill="none" stroke="grey" stroke-width="2" d="M363.839,-863.612C358.287,-836.942 348.684,-784.268 348.684,-739 348.684,-739 348.684,-739 348.684,-305 348.684,-264.931 341.928,-218.949 336.934,-190.433"/>
<polygon fill="grey" stroke="grey" stroke-width="2" points="340.346,-189.627 335.124,-180.408 333.457,-190.871 340.346,-189.627"/>
</g>
<!-- 15 -->
<g id="node16" class="node"><title>15</title>
<path fill="none" stroke="#566bd8" stroke-width="2" d="M253.684,-324C253.684,-324 223.684,-324 223.684,-324 217.684,-324 211.684,-318 211.684,-312 211.684,-312 211.684,-300 211.684,-300 211.684,-294 217.684,-288 223.684,-288 223.684,-288 253.684,-288 253.684,-288 259.684,-288 265.684,-294 265.684,-300 265.684,-300 265.684,-312 265.684,-312 265.684,-318 259.684,-324 253.684,-324"/>
<text text-anchor="middle" x="238.684" y="-303.5" font-family="sans" font-size="10.00">shovill</text>
</g>
<!-- 14&#45;&gt;15 -->
<g id="edge34" class="edge"><title>14&#45;&gt;15</title>
<path fill="none" stroke="grey" stroke-width="2" d="M346.581,-863.68C319.142,-839.075 274.684,-791.161 274.684,-739 274.684,-739 274.684,-739 274.684,-449 274.684,-407.775 260.251,-361.826 249.663,-333.662"/>
<polygon fill="grey" stroke="grey" stroke-width="2" points="252.847,-332.192 245.969,-324.133 246.32,-334.722 252.847,-332.192"/>
</g>
<!-- 27 -->
<g id="node28" class="node"><title>27</title>
<path fill="none" stroke="#ced856" stroke-width="2" d="M442.184,-756C442.184,-756 407.184,-756 407.184,-756 401.184,-756 395.184,-750 395.184,-744 395.184,-744 395.184,-732 395.184,-732 395.184,-726 401.184,-720 407.184,-720 407.184,-720 442.184,-720 442.184,-720 448.184,-720 454.184,-726 454.184,-732 454.184,-732 454.184,-744 454.184,-744 454.184,-750 448.184,-756 442.184,-756"/>
<text text-anchor="middle" x="424.684" y="-735.5" font-family="sans" font-size="10.00">unicycler</text>
</g>
<!-- 14&#45;&gt;27 -->
<g id="edge51" class="edge"><title>14&#45;&gt;27</title>
<path fill="none" stroke="grey" stroke-width="2" d="M374.56,-863.871C384.36,-839.457 402.436,-794.426 413.993,-765.635"/>
<polygon fill="grey" stroke="grey" stroke-width="2" points="417.307,-766.773 417.784,-756.189 410.811,-764.166 417.307,-766.773"/>
</g>
<!-- 36 -->
<g id="node37" class="node"><title>36</title>
<path fill="none" stroke="#8fd856" stroke-width="2" d="M456.684,-828C456.684,-828 426.684,-828 426.684,-828 420.684,-828 414.684,-822 414.684,-816 414.684,-816 414.684,-804 414.684,-804 414.684,-798 420.684,-792 426.684,-792 426.684,-792 456.684,-792 456.684,-792 462.684,-792 468.684,-798 468.684,-804 468.684,-804 468.684,-816 468.684,-816 468.684,-822 462.684,-828 456.684,-828"/>
<text text-anchor="middle" x="441.684" y="-807.5" font-family="sans" font-size="10.00">filtlong</text>
</g>
<!-- 14&#45;&gt;36 -->
<g id="edge66" class="edge"><title>14&#45;&gt;36</title>
<path fill="none" stroke="grey" stroke-width="2" d="M385.976,-863.697C395.117,-855.05 406.324,-844.449 416.284,-835.027"/>
<polygon fill="grey" stroke="grey" stroke-width="2" points="418.743,-837.519 423.602,-828.104 413.933,-832.434 418.743,-837.519"/>
</g>
<!-- 41 -->
<g id="node42" class="node"><title>41</title>
<path fill="none" stroke="#d87d56" stroke-width="2" d="M666.684,-828C666.684,-828 636.684,-828 636.684,-828 630.684,-828 624.684,-822 624.684,-816 624.684,-816 624.684,-804 624.684,-804 624.684,-798 630.684,-792 636.684,-792 636.684,-792 666.684,-792 666.684,-792 672.684,-792 678.684,-798 678.684,-804 678.684,-804 678.684,-816 678.684,-816 678.684,-822 672.684,-828 666.684,-828"/>
<text text-anchor="middle" x="651.684" y="-807.5" font-family="sans" font-size="10.00">snippy</text>
</g>
<!-- 14&#45;&gt;41 -->
<g id="edge75" class="edge"><title>14&#45;&gt;41</title>
<path fill="none" stroke="grey" stroke-width="2" d="M394.915,-874.288C446.125,-861.666 556.813,-834.384 614.703,-820.115"/>
<polygon fill="grey" stroke="grey" stroke-width="2" points="615.664,-823.483 624.536,-817.692 613.988,-816.687 615.664,-823.483"/>
</g>
<!-- 15&#45;&gt;2 -->
<g id="edge15" class="edge"><title>15&#45;&gt;2</title>
<path fill="none" stroke="grey" stroke-width="2" d="M211.677,-297.408C189.885,-289.748 160.503,-275.61 145.684,-252 120.014,-211.103 123.922,-152.3 129.217,-118.238"/>
<polygon fill="grey" stroke="grey" stroke-width="2" points="132.715,-118.548 130.95,-108.102 125.815,-117.369 132.715,-118.548"/>
</g>
<!-- 15&#45;&gt;3 -->
<g id="edge16" class="edge"><title>15&#45;&gt;3</title>
<path fill="none" stroke="grey" stroke-width="2" d="M240.908,-287.882C243.601,-269.671 248.902,-240.21 257.684,-216 270.023,-181.985 276.097,-174.423 295.684,-144 301.793,-134.512 309.159,-124.605 315.952,-115.959"/>
<polygon fill="grey" stroke="grey" stroke-width="2" points="318.717,-118.105 322.23,-108.11 313.25,-113.733 318.717,-118.105"/>
</g>
<!-- 15&#45;&gt;4 -->
<g id="edge17" class="edge"><title>15&#45;&gt;4</title>
<path fill="none" stroke="grey" stroke-width="2" d="M211.219,-297.881C186.515,-290.221 150.672,-275.815 127.684,-252 90.8523,-213.843 71.7505,-153.178 63.2924,-118.229"/>
<polygon fill="grey" stroke="grey" stroke-width="2" points="66.6526,-117.223 61.0013,-108.262 59.8305,-118.792 66.6526,-117.223"/>
</g>
<!-- 16 -->
<g id="node17" class="node"><title>16</title>
<path fill="none" stroke="#70d856" stroke-width="2" d="M308.684,-252C308.684,-252 278.684,-252 278.684,-252 272.684,-252 266.684,-246 266.684,-240 266.684,-240 266.684,-228 266.684,-228 266.684,-222 272.684,-216 278.684,-216 278.684,-216 308.684,-216 308.684,-216 314.684,-216 320.684,-222 320.684,-228 320.684,-228 320.684,-240 320.684,-240 320.684,-246 314.684,-252 308.684,-252"/>
<text text-anchor="middle" x="293.684" y="-231.5" font-family="sans" font-size="10.00">quast</text>
</g>
<!-- 15&#45;&gt;16 -->
<g id="edge35" class="edge"><title>15&#45;&gt;16</title>
<path fill="none" stroke="grey" stroke-width="2" d="M252.28,-287.697C258.807,-279.389 266.752,-269.277 273.931,-260.141"/>
<polygon fill="grey" stroke="grey" stroke-width="2" points="276.819,-262.13 280.245,-252.104 271.315,-257.805 276.819,-262.13"/>
</g>
<!-- 17 -->
<g id="node18" class="node"><title>17</title>
<path fill="none" stroke="#61d856" stroke-width="2" d="M198.684,-252C198.684,-252 166.684,-252 166.684,-252 160.684,-252 154.684,-246 154.684,-240 154.684,-240 154.684,-228 154.684,-228 154.684,-222 160.684,-216 166.684,-216 166.684,-216 198.684,-216 198.684,-216 204.684,-216 210.684,-222 210.684,-228 210.684,-228 210.684,-240 210.684,-240 210.684,-246 204.684,-252 198.684,-252"/>
<text text-anchor="middle" x="182.684" y="-231.5" font-family="sans" font-size="10.00">abricate</text>
</g>
<!-- 15&#45;&gt;17 -->
<g id="edge36" class="edge"><title>15&#45;&gt;17</title>
<path fill="none" stroke="grey" stroke-width="2" d="M224.842,-287.697C218.196,-279.389 210.106,-269.277 202.797,-260.141"/>
<polygon fill="grey" stroke="grey" stroke-width="2" points="205.348,-257.727 196.368,-252.104 199.882,-262.099 205.348,-257.727"/>
</g>
<!-- 33 -->
<g id="node34" class="node"><title>33</title>
<path fill="none" stroke="#56c1d8" stroke-width="2" d="M486.184,-252C486.184,-252 439.184,-252 439.184,-252 433.184,-252 427.184,-246 427.184,-240 427.184,-240 427.184,-228 427.184,-228 427.184,-222 433.184,-216 439.184,-216 439.184,-216 486.184,-216 486.184,-216 492.184,-216 498.184,-222 498.184,-228 498.184,-228 498.184,-240 498.184,-240 498.184,-246 492.184,-252 486.184,-252"/>
<text text-anchor="middle" x="462.684" y="-231.5" font-family="sans" font-size="10.00">ezclermont</text>
</g>
<!-- 15&#45;&gt;33 -->
<g id="edge63" class="edge"><title>15&#45;&gt;33</title>
<path fill="none" stroke="grey" stroke-width="2" d="M265.704,-296.556C303.321,-284.801 371.966,-263.35 417.459,-249.133"/>
<polygon fill="grey" stroke="grey" stroke-width="2" points="418.577,-252.451 427.078,-246.127 416.489,-245.769 418.577,-252.451"/>
</g>
<!-- 16&#45;&gt;5 -->
<g id="edge19" class="edge"><title>16&#45;&gt;5</title>
<path fill="none" stroke="grey" stroke-width="2" d="M303.077,-215.697C307.449,-207.644 312.741,-197.894 317.579,-188.982"/>
<polygon fill="grey" stroke="grey" stroke-width="2" points="320.704,-190.563 322.399,-180.104 314.552,-187.223 320.704,-190.563"/>
</g>
<!-- 17&#45;&gt;6 -->
<g id="edge20" class="edge"><title>17&#45;&gt;6</title>
<path fill="none" stroke="grey" stroke-width="2" d="M189.318,-215.871C198.775,-191.457 216.216,-146.426 227.368,-117.635"/>
<polygon fill="grey" stroke="grey" stroke-width="2" points="230.678,-118.778 231.026,-108.189 224.151,-116.25 230.678,-118.778"/>
</g>
<!-- 18 -->
<g id="node19" class="node"><title>18</title>
<path fill="none" stroke="#b6d856" stroke-width="2" d="M475.684,-612C475.684,-612 397.684,-612 397.684,-612 391.684,-612 385.684,-606 385.684,-600 385.684,-600 385.684,-588 385.684,-588 385.684,-582 391.684,-576 397.684,-576 397.684,-576 475.684,-576 475.684,-576 481.684,-576 487.684,-582 487.684,-588 487.684,-588 487.684,-600 487.684,-600 487.684,-606 481.684,-612 475.684,-612"/>
<text text-anchor="middle" x="436.684" y="-591.5" font-family="sans" font-size="10.00">get_ESBL_contigs</text>
</g>
<!-- 18&#45;&gt;8 -->
<g id="edge21" class="edge"><title>18&#45;&gt;8</title>
<path fill="none" stroke="grey" stroke-width="2" d="M436.684,-575.871C436.684,-551.67 436.684,-507.211 436.684,-478.393"/>
<polygon fill="grey" stroke="grey" stroke-width="2" points="440.184,-478.189 436.684,-468.189 433.184,-478.189 440.184,-478.189"/>
</g>
<!-- 19 -->
<g id="node20" class="node"><title>19</title>
<path fill="none" stroke="#567bd8" stroke-width="2" d="M1285.68,-396C1285.68,-396 1225.68,-396 1225.68,-396 1219.68,-396 1213.68,-390 1213.68,-384 1213.68,-384 1213.68,-372 1213.68,-372 1213.68,-366 1219.68,-360 1225.68,-360 1225.68,-360 1285.68,-360 1285.68,-360 1291.68,-360 1297.68,-366 1297.68,-372 1297.68,-372 1297.68,-384 1297.68,-384 1297.68,-390 1291.68,-396 1285.68,-396"/>
<text text-anchor="middle" x="1255.68" y="-375.5" font-family="sans" font-size="10.00">fastp_controls</text>
</g>
<!-- 19&#45;&gt;9 -->
<g id="edge22" class="edge"><title>19&#45;&gt;9</title>
<path fill="none" stroke="grey" stroke-width="2" d="M1228.29,-359.876C1213.78,-350.808 1195.77,-339.552 1180.1,-329.759"/>
<polygon fill="grey" stroke="grey" stroke-width="2" points="1181.52,-326.522 1171.19,-324.19 1177.81,-332.458 1181.52,-326.522"/>
</g>
<!-- 19&#45;&gt;11 -->
<g id="edge24" class="edge"><title>19&#45;&gt;11</title>
<path fill="none" stroke="grey" stroke-width="2" d="M1278.19,-359.927C1289.05,-350.503 1301.29,-337.902 1308.68,-324 1331.23,-281.607 1328.06,-223.786 1323.51,-190.215"/>
<polygon fill="grey" stroke="grey" stroke-width="2" points="1326.96,-189.59 1322.01,-180.218 1320.03,-190.626 1326.96,-189.59"/>
</g>
<!-- 20 -->
<g id="node21" class="node"><title>20</title>
<path fill="none" stroke="#78d856" stroke-width="2" d="M1288.18,-324C1288.18,-324 1223.18,-324 1223.18,-324 1217.18,-324 1211.18,-318 1211.18,-312 1211.18,-312 1211.18,-300 1211.18,-300 1211.18,-294 1217.18,-288 1223.18,-288 1223.18,-288 1288.18,-288 1288.18,-288 1294.18,-288 1300.18,-294 1300.18,-300 1300.18,-300 1300.18,-312 1300.18,-312 1300.18,-318 1294.18,-324 1288.18,-324"/>
<text text-anchor="middle" x="1255.68" y="-303.5" font-family="sans" font-size="10.00">shovill_controls</text>
</g>
<!-- 19&#45;&gt;20 -->
<g id="edge39" class="edge"><title>19&#45;&gt;20</title>
<path fill="none" stroke="grey" stroke-width="2" d="M1255.68,-359.697C1255.68,-351.983 1255.68,-342.712 1255.68,-334.112"/>
<polygon fill="grey" stroke="grey" stroke-width="2" points="1259.18,-334.104 1255.68,-324.104 1252.18,-334.104 1259.18,-334.104"/>
</g>
<!-- 20&#45;&gt;10 -->
<g id="edge23" class="edge"><title>20&#45;&gt;10</title>
<path fill="none" stroke="grey" stroke-width="2" d="M1239.52,-287.819C1231.42,-278.089 1222.35,-265.24 1217.68,-252 1210.7,-232.207 1209.72,-208.407 1210.33,-190.401"/>
<polygon fill="grey" stroke="grey" stroke-width="2" points="1213.83,-190.454 1210.86,-180.284 1206.84,-190.087 1213.83,-190.454"/>
</g>
<!-- 21 -->
<g id="node22" class="node"><title>21</title>
<path fill="none" stroke="#d8c356" stroke-width="2" d="M1302.18,-252C1302.18,-252 1239.18,-252 1239.18,-252 1233.18,-252 1227.18,-246 1227.18,-240 1227.18,-240 1227.18,-228 1227.18,-228 1227.18,-222 1233.18,-216 1239.18,-216 1239.18,-216 1302.18,-216 1302.18,-216 1308.18,-216 1314.18,-222 1314.18,-228 1314.18,-228 1314.18,-240 1314.18,-240 1314.18,-246 1308.18,-252 1302.18,-252"/>
<text text-anchor="middle" x="1270.68" y="-231.5" font-family="sans" font-size="10.00">quast_controls</text>
</g>
<!-- 20&#45;&gt;21 -->
<g id="edge40" class="edge"><title>20&#45;&gt;21</title>
<path fill="none" stroke="grey" stroke-width="2" d="M1259.39,-287.697C1261.05,-279.983 1263.03,-270.712 1264.87,-262.112"/>
<polygon fill="grey" stroke="grey" stroke-width="2" points="1268.35,-262.616 1267.02,-252.104 1261.5,-261.149 1268.35,-262.616"/>
</g>
<!-- 34 -->
<g id="node35" class="node"><title>34</title>
<path fill="none" stroke="#56d8c9" stroke-width="2" d="M1103.68,-252C1103.68,-252 1013.68,-252 1013.68,-252 1007.68,-252 1001.68,-246 1001.68,-240 1001.68,-240 1001.68,-228 1001.68,-228 1001.68,-222 1007.68,-216 1013.68,-216 1013.68,-216 1103.68,-216 1103.68,-216 1109.68,-216 1115.68,-222 1115.68,-228 1115.68,-228 1115.68,-240 1115.68,-240 1115.68,-246 1109.68,-252 1103.68,-252"/>
<text text-anchor="middle" x="1058.68" y="-231.5" font-family="sans" font-size="10.00">ezclermont_controls</text>
</g>
<!-- 20&#45;&gt;34 -->
<g id="edge64" class="edge"><title>20&#45;&gt;34</title>
<path fill="none" stroke="grey" stroke-width="2" d="M1210.98,-289.116C1182.91,-279.143 1146.44,-266.182 1116.22,-255.445"/>
<polygon fill="grey" stroke="grey" stroke-width="2" points="1117.25,-252.094 1106.65,-252.044 1114.9,-258.69 1117.25,-252.094"/>
</g>
<!-- 21&#45;&gt;11 -->
<g id="edge25" class="edge"><title>21&#45;&gt;11</title>
<path fill="none" stroke="grey" stroke-width="2" d="M1282.55,-215.697C1288.19,-207.474 1295.04,-197.483 1301.25,-188.421"/>
<polygon fill="grey" stroke="grey" stroke-width="2" points="1304.19,-190.331 1306.96,-180.104 1298.41,-186.372 1304.19,-190.331"/>
</g>
<!-- 22 -->
<g id="node23" class="node"><title>22</title>
<path fill="none" stroke="#56d882" stroke-width="2" d="M789.184,-324C789.184,-324 712.184,-324 712.184,-324 706.184,-324 700.184,-318 700.184,-312 700.184,-312 700.184,-300 700.184,-300 700.184,-294 706.184,-288 712.184,-288 712.184,-288 789.184,-288 789.184,-288 795.184,-288 801.184,-294 801.184,-300 801.184,-300 801.184,-312 801.184,-312 801.184,-318 795.184,-324 789.184,-324"/>
<text text-anchor="middle" x="750.684" y="-303.5" font-family="sans" font-size="10.00">snp_comparisons</text>
</g>
<!-- 22&#45;&gt;12 -->
<g id="edge26" class="edge"><title>22&#45;&gt;12</title>
<path fill="none" stroke="grey" stroke-width="2" d="M797.086,-287.877C888.805,-254.005 1084.6,-181.562 1085.68,-180 1128.68,-118.073 1019.06,-98.7149 929.38,-92.9507"/>
<polygon fill="grey" stroke="grey" stroke-width="2" points="929.578,-89.4564 919.388,-92.3583 929.163,-96.4441 929.578,-89.4564"/>
</g>
<!-- 22&#45;&gt;13 -->
<g id="edge30" class="edge"><title>22&#45;&gt;13</title>
<path fill="none" stroke="grey" stroke-width="2" d="M712.4,-287.981C672.737,-268.159 612.471,-231.437 582.684,-180 571.788,-161.184 567.408,-136.807 565.686,-118.325"/>
<polygon fill="grey" stroke="grey" stroke-width="2" points="569.166,-117.929 564.949,-108.21 562.185,-118.438 569.166,-117.929"/>
</g>
<!-- 25 -->
<g id="node26" class="node"><title>25</title>
<path fill="none" stroke="#d8cb56" stroke-width="2" d="M881.684,-180C881.684,-180 771.684,-180 771.684,-180 765.684,-180 759.684,-174 759.684,-168 759.684,-168 759.684,-156 759.684,-156 759.684,-150 765.684,-144 771.684,-144 771.684,-144 881.684,-144 881.684,-144 887.684,-144 893.684,-150 893.684,-156 893.684,-156 893.684,-168 893.684,-168 893.684,-174 887.684,-180 881.684,-180"/>
<text text-anchor="middle" x="826.684" y="-159.5" font-family="sans" font-size="10.00">print_travelers_withST38</text>
</g>
<!-- 22&#45;&gt;25 -->
<g id="edge48" class="edge"><title>22&#45;&gt;25</title>
<path fill="none" stroke="grey" stroke-width="2" d="M785.069,-287.964C798.925,-279.219 813.533,-267.178 821.684,-252 831.783,-233.195 832.451,-208.817 830.919,-190.332"/>
<polygon fill="grey" stroke="grey" stroke-width="2" points="834.38,-189.777 829.818,-180.215 827.421,-190.535 834.38,-189.777"/>
</g>
<!-- 26 -->
<g id="node27" class="node"><title>26</title>
<path fill="none" stroke="#5682d8" stroke-width="2" d="M729.184,-180C729.184,-180 604.184,-180 604.184,-180 598.184,-180 592.184,-174 592.184,-168 592.184,-168 592.184,-156 592.184,-156 592.184,-150 598.184,-144 604.184,-144 604.184,-144 729.184,-144 729.184,-144 735.184,-144 741.184,-150 741.184,-156 741.184,-156 741.184,-168 741.184,-168 741.184,-174 735.184,-180 729.184,-180"/>
<text text-anchor="middle" x="666.684" y="-159.5" font-family="sans" font-size="10.00">print_travelers_withoutST38</text>
</g>
<!-- 22&#45;&gt;26 -->
<g id="edge50" class="edge"><title>22&#45;&gt;26</title>
<path fill="none" stroke="grey" stroke-width="2" d="M717.3,-287.841C703.457,-279.009 688.58,-266.932 679.684,-252 668.594,-233.384 665.707,-208.8 665.389,-190.187"/>
<polygon fill="grey" stroke="grey" stroke-width="2" points="668.89,-190.031 665.455,-180.009 661.89,-189.985 668.89,-190.031"/>
</g>
<!-- 35 -->
<g id="node36" class="node"><title>35</title>
<path fill="none" stroke="#56a9d8" stroke-width="2" d="M800.684,-252C800.684,-252 700.684,-252 700.684,-252 694.684,-252 688.684,-246 688.684,-240 688.684,-240 688.684,-228 688.684,-228 688.684,-222 694.684,-216 700.684,-216 700.684,-216 800.684,-216 800.684,-216 806.684,-216 812.684,-222 812.684,-228 812.684,-228 812.684,-240 812.684,-240 812.684,-246 806.684,-252 800.684,-252"/>
<text text-anchor="middle" x="750.684" y="-231.5" font-family="sans" font-size="10.00">plot_snp_comparisons</text>
</g>
<!-- 22&#45;&gt;35 -->
<g id="edge65" class="edge"><title>22&#45;&gt;35</title>
<path fill="none" stroke="grey" stroke-width="2" d="M750.684,-287.697C750.684,-279.983 750.684,-270.712 750.684,-262.112"/>
<polygon fill="grey" stroke="grey" stroke-width="2" points="754.184,-262.104 750.684,-252.104 747.184,-262.104 754.184,-262.104"/>
</g>
<!-- 23 -->
<g id="node24" class="node"><title>23</title>
<path fill="none" stroke="#a7d856" stroke-width="2" d="M524.684,-180C524.684,-180 426.684,-180 426.684,-180 420.684,-180 414.684,-174 414.684,-168 414.684,-168 414.684,-156 414.684,-156 414.684,-150 420.684,-144 426.684,-144 426.684,-144 524.684,-144 524.684,-144 530.684,-144 536.684,-150 536.684,-156 536.684,-156 536.684,-168 536.684,-168 536.684,-174 530.684,-180 524.684,-180"/>
<text text-anchor="middle" x="475.684" y="-159.5" font-family="sans" font-size="10.00">ezclermont_summary</text>
</g>
<!-- 23&#45;&gt;12 -->
<g id="edge28" class="edge"><title>23&#45;&gt;12</title>
<path fill="none" stroke="grey" stroke-width="2" d="M536.824,-148.807C590.408,-138.121 669.185,-122.41 731.093,-110.064"/>
<polygon fill="grey" stroke="grey" stroke-width="2" points="732.146,-113.423 741.269,-108.034 730.777,-106.558 732.146,-113.423"/>
</g>
<!-- 23&#45;&gt;13 -->
<g id="edge32" class="edge"><title>23&#45;&gt;13</title>
<path fill="none" stroke="grey" stroke-width="2" d="M497.684,-143.697C508.893,-134.881 522.686,-124.032 534.838,-114.474"/>
<polygon fill="grey" stroke="grey" stroke-width="2" points="537.241,-117.038 542.937,-108.104 532.913,-111.535 537.241,-117.038"/>
</g>
<!-- 24 -->
<g id="node25" class="node"><title>24</title>
<path fill="none" stroke="#56d892" stroke-width="2" d="M1065.18,-180C1065.18,-180 924.184,-180 924.184,-180 918.184,-180 912.184,-174 912.184,-168 912.184,-168 912.184,-156 912.184,-156 912.184,-150 918.184,-144 924.184,-144 924.184,-144 1065.18,-144 1065.18,-144 1071.18,-144 1077.18,-150 1077.18,-156 1077.18,-156 1077.18,-168 1077.18,-168 1077.18,-174 1071.18,-180 1065.18,-180"/>
<text text-anchor="middle" x="994.684" y="-159.5" font-family="sans" font-size="10.00">ezclermont_summary_controls</text>
</g>
<!-- 24&#45;&gt;12 -->
<g id="edge27" class="edge"><title>24&#45;&gt;12</title>
<path fill="none" stroke="grey" stroke-width="2" d="M953.587,-143.876C930.518,-134.264 901.548,-122.193 877.114,-112.013"/>
<polygon fill="grey" stroke="grey" stroke-width="2" points="878.225,-108.684 867.648,-108.068 875.533,-115.145 878.225,-108.684"/>
</g>
<!-- 24&#45;&gt;13 -->
<g id="edge31" class="edge"><title>24&#45;&gt;13</title>
<path fill="none" stroke="grey" stroke-width="2" d="M911.951,-145.603C908.824,-145.055 905.726,-144.519 902.684,-144 826.805,-131.043 741.13,-117.622 675.023,-107.527"/>
<polygon fill="grey" stroke="grey" stroke-width="2" points="675.414,-104.046 665.001,-105.999 674.359,-110.966 675.414,-104.046"/>
</g>
<!-- 25&#45;&gt;12 -->
<g id="edge29" class="edge"><title>25&#45;&gt;12</title>
<path fill="none" stroke="grey" stroke-width="2" d="M826.684,-143.697C826.684,-135.983 826.684,-126.712 826.684,-118.112"/>
<polygon fill="grey" stroke="grey" stroke-width="2" points="830.184,-118.104 826.684,-108.104 823.184,-118.104 830.184,-118.104"/>
</g>
<!-- 26&#45;&gt;13 -->
<g id="edge33" class="edge"><title>26&#45;&gt;13</title>
<path fill="none" stroke="grey" stroke-width="2" d="M641.732,-143.876C628.643,-134.893 612.424,-123.763 598.248,-114.034"/>
<polygon fill="grey" stroke="grey" stroke-width="2" points="599.958,-110.962 589.732,-108.19 595.997,-116.734 599.958,-110.962"/>
</g>
<!-- 27&#45;&gt;18 -->
<g id="edge38" class="edge"><title>27&#45;&gt;18</title>
<path fill="none" stroke="grey" stroke-width="2" d="M416.173,-719.806C408.377,-701.782 398.99,-672.704 405.684,-648 408.264,-638.48 413.029,-628.917 418.062,-620.587"/>
<polygon fill="grey" stroke="grey" stroke-width="2" points="421.062,-622.393 423.539,-612.092 415.179,-618.601 421.062,-622.393"/>
</g>
<!-- 28 -->
<g id="node29" class="node"><title>28</title>
<path fill="none" stroke="#56d87b" stroke-width="2" d="M516.684,-684C516.684,-684 426.684,-684 426.684,-684 420.684,-684 414.684,-678 414.684,-672 414.684,-672 414.684,-660 414.684,-660 414.684,-654 420.684,-648 426.684,-648 426.684,-648 516.684,-648 516.684,-648 522.684,-648 528.684,-654 528.684,-660 528.684,-660 528.684,-672 528.684,-672 528.684,-678 522.684,-684 516.684,-684"/>
<text text-anchor="middle" x="471.684" y="-663.5" font-family="sans" font-size="10.00">amrfinder_nanopore</text>
</g>
<!-- 27&#45;&gt;28 -->
<g id="edge53" class="edge"><title>27&#45;&gt;28</title>
<path fill="none" stroke="grey" stroke-width="2" d="M436.302,-719.697C441.823,-711.474 448.531,-701.483 454.616,-692.421"/>
<polygon fill="grey" stroke="grey" stroke-width="2" points="457.531,-694.358 460.2,-684.104 451.72,-690.456 457.531,-694.358"/>
</g>
<!-- 28&#45;&gt;18 -->
<g id="edge37" class="edge"><title>28&#45;&gt;18</title>
<path fill="none" stroke="grey" stroke-width="2" d="M463.033,-647.697C459.048,-639.728 454.234,-630.1 449.816,-621.264"/>
<polygon fill="grey" stroke="grey" stroke-width="2" points="452.839,-619.483 445.236,-612.104 446.578,-622.614 452.839,-619.483"/>
</g>
<!-- 29 -->
<g id="node30" class="node"><title>29</title>
<path fill="none" stroke="#d6d856" stroke-width="2" d="M688.684,-540C688.684,-540 612.684,-540 612.684,-540 606.684,-540 600.684,-534 600.684,-528 600.684,-528 600.684,-516 600.684,-516 600.684,-510 606.684,-504 612.684,-504 612.684,-504 688.684,-504 688.684,-504 694.684,-504 700.684,-510 700.684,-516 700.684,-516 700.684,-528 700.684,-528 700.684,-534 694.684,-540 688.684,-540"/>
<text text-anchor="middle" x="650.684" y="-519.5" font-family="sans" font-size="10.00">maskrc_withST38</text>
</g>
<!-- 29&#45;&gt;22 -->
<g id="edge42" class="edge"><title>29&#45;&gt;22</title>
<path fill="none" stroke="grey" stroke-width="2" d="M642.683,-503.866C629.353,-472.553 606.774,-405.157 635.684,-360 648.07,-340.653 669.506,-328.27 690.539,-320.389"/>
<polygon fill="grey" stroke="grey" stroke-width="2" points="691.829,-323.646 700.141,-317.076 689.546,-317.029 691.829,-323.646"/>
</g>
<!-- 30 -->
<g id="node31" class="node"><title>30</title>
<path fill="none" stroke="#56d8d8" stroke-width="2" d="M837.684,-468C837.684,-468 745.684,-468 745.684,-468 739.684,-468 733.684,-462 733.684,-456 733.684,-456 733.684,-444 733.684,-444 733.684,-438 739.684,-432 745.684,-432 745.684,-432 837.684,-432 837.684,-432 843.684,-432 849.684,-438 849.684,-444 849.684,-444 849.684,-456 849.684,-456 849.684,-462 843.684,-468 837.684,-468"/>
<text text-anchor="middle" x="791.684" y="-447.5" font-family="sans" font-size="10.00">maskrc_withoutST38</text>
</g>
<!-- 29&#45;&gt;30 -->
<g id="edge56" class="edge"><title>29&#45;&gt;30</title>
<path fill="none" stroke="grey" stroke-width="2" d="M685.177,-503.876C704.125,-494.469 727.816,-482.708 748.04,-472.667"/>
<polygon fill="grey" stroke="grey" stroke-width="2" points="749.659,-475.771 757.059,-468.19 746.546,-469.502 749.659,-475.771"/>
</g>
<!-- 31 -->
<g id="node32" class="node"><title>31</title>
<path fill="none" stroke="#d8ac56" stroke-width="2" d="M778.684,-396C778.684,-396 740.684,-396 740.684,-396 734.684,-396 728.684,-390 728.684,-384 728.684,-384 728.684,-372 728.684,-372 728.684,-366 734.684,-360 740.684,-360 740.684,-360 778.684,-360 778.684,-360 784.684,-360 790.684,-366 790.684,-372 790.684,-372 790.684,-384 790.684,-384 790.684,-390 784.684,-396 778.684,-396"/>
<text text-anchor="middle" x="759.684" y="-375.5" font-family="sans" font-size="10.00">snp_dists</text>
</g>
<!-- 29&#45;&gt;31 -->
<g id="edge59" class="edge"><title>29&#45;&gt;31</title>
<path fill="none" stroke="grey" stroke-width="2" d="M663.832,-503.871C682.9,-479.031 718.351,-432.846 740.385,-404.142"/>
<polygon fill="grey" stroke="grey" stroke-width="2" points="743.177,-406.253 746.49,-396.189 737.624,-401.991 743.177,-406.253"/>
</g>
<!-- 32 -->
<g id="node33" class="node"><title>32</title>
<path fill="none" stroke="#56b1d8" stroke-width="2" d="M698.684,-396C698.684,-396 656.684,-396 656.684,-396 650.684,-396 644.684,-390 644.684,-384 644.684,-384 644.684,-372 644.684,-372 644.684,-366 650.684,-360 656.684,-360 656.684,-360 698.684,-360 698.684,-360 704.684,-360 710.684,-366 710.684,-372 710.684,-372 710.684,-384 710.684,-384 710.684,-390 704.684,-396 698.684,-396"/>
<text text-anchor="middle" x="677.684" y="-375.5" font-family="sans" font-size="10.00">alnlengths</text>
</g>
<!-- 29&#45;&gt;32 -->
<g id="edge61" class="edge"><title>29&#45;&gt;32</title>
<path fill="none" stroke="grey" stroke-width="2" d="M653.941,-503.871C658.543,-479.67 666.996,-435.211 672.476,-406.393"/>
<polygon fill="grey" stroke="grey" stroke-width="2" points="675.986,-406.667 674.416,-396.189 669.109,-405.359 675.986,-406.667"/>
</g>
<!-- 30&#45;&gt;22 -->
<g id="edge43" class="edge"><title>30&#45;&gt;22</title>
<path fill="none" stroke="grey" stroke-width="2" d="M797.634,-431.958C803.067,-413.554 808.958,-383.692 799.684,-360 795.488,-349.279 787.992,-339.427 780.106,-331.201"/>
<polygon fill="grey" stroke="grey" stroke-width="2" points="782.444,-328.592 772.837,-324.125 777.561,-333.608 782.444,-328.592"/>
</g>
<!-- 30&#45;&gt;31 -->
<g id="edge60" class="edge"><title>30&#45;&gt;31</title>
<path fill="none" stroke="grey" stroke-width="2" d="M783.774,-431.697C780.131,-423.728 775.73,-414.1 771.691,-405.264"/>
<polygon fill="grey" stroke="grey" stroke-width="2" points="774.844,-403.744 767.503,-396.104 768.478,-406.654 774.844,-403.744"/>
</g>
<!-- 30&#45;&gt;32 -->
<g id="edge62" class="edge"><title>30&#45;&gt;32</title>
<path fill="none" stroke="grey" stroke-width="2" d="M763.797,-431.876C748.891,-422.724 730.355,-411.342 714.303,-401.485"/>
<polygon fill="grey" stroke="grey" stroke-width="2" points="716.032,-398.44 705.679,-396.19 712.369,-404.405 716.032,-398.44"/>
</g>
<!-- 31&#45;&gt;22 -->
<g id="edge41" class="edge"><title>31&#45;&gt;22</title>
<path fill="none" stroke="grey" stroke-width="2" d="M757.459,-359.697C756.468,-351.983 755.276,-342.712 754.17,-334.112"/>
<polygon fill="grey" stroke="grey" stroke-width="2" points="757.63,-333.576 752.883,-324.104 750.687,-334.469 757.63,-333.576"/>
</g>
<!-- 32&#45;&gt;22 -->
<g id="edge44" class="edge"><title>32&#45;&gt;22</title>
<path fill="none" stroke="grey" stroke-width="2" d="M695.729,-359.697C704.746,-351.05 715.802,-340.449 725.627,-331.027"/>
<polygon fill="grey" stroke="grey" stroke-width="2" points="728.051,-333.552 732.847,-324.104 723.207,-328.499 728.051,-333.552"/>
</g>
<!-- 33&#45;&gt;23 -->
<g id="edge45" class="edge"><title>33&#45;&gt;23</title>
<path fill="none" stroke="grey" stroke-width="2" d="M465.898,-215.697C467.33,-207.983 469.052,-198.712 470.649,-190.112"/>
<polygon fill="grey" stroke="grey" stroke-width="2" points="474.123,-190.575 472.508,-180.104 467.241,-189.297 474.123,-190.575"/>
</g>
<!-- 34&#45;&gt;24 -->
<g id="edge46" class="edge"><title>34&#45;&gt;24</title>
<path fill="none" stroke="grey" stroke-width="2" d="M1042.86,-215.697C1035.11,-207.22 1025.65,-196.864 1017.16,-187.583"/>
<polygon fill="grey" stroke="grey" stroke-width="2" points="1019.65,-185.123 1010.32,-180.104 1014.49,-189.846 1019.65,-185.123"/>
</g>
<!-- 35&#45;&gt;25 -->
<g id="edge47" class="edge"><title>35&#45;&gt;25</title>
<path fill="none" stroke="grey" stroke-width="2" d="M769.471,-215.697C778.858,-207.05 790.369,-196.449 800.598,-187.027"/>
<polygon fill="grey" stroke="grey" stroke-width="2" points="803.129,-189.454 808.114,-180.104 798.387,-184.305 803.129,-189.454"/>
</g>
<!-- 35&#45;&gt;26 -->
<g id="edge49" class="edge"><title>35&#45;&gt;26</title>
<path fill="none" stroke="grey" stroke-width="2" d="M729.92,-215.697C719.443,-206.965 706.573,-196.24 695.185,-186.75"/>
<polygon fill="grey" stroke="grey" stroke-width="2" points="697.132,-183.817 687.209,-180.104 692.651,-189.195 697.132,-183.817"/>
</g>
<!-- 36&#45;&gt;27 -->
<g id="edge52" class="edge"><title>36&#45;&gt;27</title>
<path fill="none" stroke="grey" stroke-width="2" d="M437.482,-791.697C435.588,-783.898 433.308,-774.509 431.2,-765.829"/>
<polygon fill="grey" stroke="grey" stroke-width="2" points="434.599,-764.996 428.838,-756.104 427.797,-766.648 434.599,-764.996"/>
</g>
<!-- 37 -->
<g id="node38" class="node"><title>37</title>
<path fill="none" stroke="#5663d8" stroke-width="2" d="M697.684,-756C697.684,-756 605.684,-756 605.684,-756 599.684,-756 593.684,-750 593.684,-744 593.684,-744 593.684,-732 593.684,-732 593.684,-726 599.684,-720 605.684,-720 605.684,-720 697.684,-720 697.684,-720 703.684,-720 709.684,-726 709.684,-732 709.684,-732 709.684,-744 709.684,-744 709.684,-750 703.684,-756 697.684,-756"/>
<text text-anchor="middle" x="651.684" y="-735.5" font-family="sans" font-size="10.00">snippycore_withST38</text>
</g>
<!-- 37&#45;&gt;29 -->
<g id="edge54" class="edge"><title>37&#45;&gt;29</title>
<path fill="none" stroke="grey" stroke-width="2" d="M636.956,-719.839C618.431,-697.008 587.605,-654.554 575.684,-612 571.368,-596.593 568.327,-590.208 575.684,-576 582.052,-563.702 592.733,-553.648 604.067,-545.731"/>
<polygon fill="grey" stroke="grey" stroke-width="2" points="606.299,-548.456 612.801,-540.091 602.501,-542.576 606.299,-548.456"/>
</g>
<!-- 38 -->
<g id="node39" class="node"><title>38</title>
<path fill="none" stroke="#9fd856" stroke-width="2" d="M706.184,-612C706.184,-612 597.184,-612 597.184,-612 591.184,-612 585.184,-606 585.184,-600 585.184,-600 585.184,-588 585.184,-588 585.184,-582 591.184,-576 597.184,-576 597.184,-576 706.184,-576 706.184,-576 712.184,-576 718.184,-582 718.184,-588 718.184,-588 718.184,-600 718.184,-600 718.184,-606 712.184,-612 706.184,-612"/>
<text text-anchor="middle" x="651.684" y="-591.5" font-family="sans" font-size="10.00">clonalframeml_withST38</text>
</g>
<!-- 37&#45;&gt;38 -->
<g id="edge68" class="edge"><title>37&#45;&gt;38</title>
<path fill="none" stroke="grey" stroke-width="2" d="M647.625,-719.929C645.379,-709.598 642.818,-696.12 641.684,-684 640.194,-668.07 640.194,-663.93 641.684,-648 642.481,-639.478 643.984,-630.285 645.587,-621.986"/>
<polygon fill="grey" stroke="grey" stroke-width="2" points="649.04,-622.571 647.625,-612.071 642.183,-621.161 649.04,-622.571"/>
</g>
<!-- 39 -->
<g id="node40" class="node"><title>39</title>
<path fill="none" stroke="#569ad8" stroke-width="2" d="M880.684,-684C880.684,-684 772.684,-684 772.684,-684 766.684,-684 760.684,-678 760.684,-672 760.684,-672 760.684,-660 760.684,-660 760.684,-654 766.684,-648 772.684,-648 772.684,-648 880.684,-648 880.684,-648 886.684,-648 892.684,-654 892.684,-660 892.684,-660 892.684,-672 892.684,-672 892.684,-678 886.684,-684 880.684,-684"/>
<text text-anchor="middle" x="826.684" y="-663.5" font-family="sans" font-size="10.00">snippycore_withoutST38</text>
</g>
<!-- 37&#45;&gt;39 -->
<g id="edge71" class="edge"><title>37&#45;&gt;39</title>
<path fill="none" stroke="grey" stroke-width="2" d="M694.494,-719.876C718.63,-710.222 748.968,-698.087 774.49,-687.878"/>
<polygon fill="grey" stroke="grey" stroke-width="2" points="776.029,-691.032 784.013,-684.068 773.429,-684.533 776.029,-691.032"/>
</g>
<!-- 42 -->
<g id="node43" class="node"><title>42</title>
<path fill="none" stroke="#d85656" stroke-width="2" d="M730.684,-684C730.684,-684 662.684,-684 662.684,-684 656.684,-684 650.684,-678 650.684,-672 650.684,-672 650.684,-660 650.684,-660 650.684,-654 656.684,-648 662.684,-648 662.684,-648 730.684,-648 730.684,-648 736.684,-648 742.684,-654 742.684,-660 742.684,-660 742.684,-672 742.684,-672 742.684,-678 736.684,-684 730.684,-684"/>
<text text-anchor="middle" x="696.684" y="-663.5" font-family="sans" font-size="10.00">iqtree_withST38</text>
</g>
<!-- 37&#45;&gt;42 -->
<g id="edge76" class="edge"><title>37&#45;&gt;42</title>
<path fill="none" stroke="grey" stroke-width="2" d="M662.808,-719.697C668.039,-711.559 674.384,-701.689 680.162,-692.701"/>
<polygon fill="grey" stroke="grey" stroke-width="2" points="683.225,-694.409 685.689,-684.104 677.337,-690.623 683.225,-694.409"/>
</g>
<!-- 38&#45;&gt;29 -->
<g id="edge55" class="edge"><title>38&#45;&gt;29</title>
<path fill="none" stroke="grey" stroke-width="2" d="M651.437,-575.697C651.327,-567.983 651.194,-558.712 651.072,-550.112"/>
<polygon fill="grey" stroke="grey" stroke-width="2" points="654.571,-550.053 650.929,-540.104 647.572,-550.153 654.571,-550.053"/>
</g>
<!-- 40 -->
<g id="node41" class="node"><title>40</title>
<path fill="none" stroke="#56d89a" stroke-width="2" d="M856.184,-540C856.184,-540 731.184,-540 731.184,-540 725.184,-540 719.184,-534 719.184,-528 719.184,-528 719.184,-516 719.184,-516 719.184,-510 725.184,-504 731.184,-504 731.184,-504 856.184,-504 856.184,-504 862.184,-504 868.184,-510 868.184,-516 868.184,-516 868.184,-528 868.184,-528 868.184,-534 862.184,-540 856.184,-540"/>
<text text-anchor="middle" x="793.684" y="-519.5" font-family="sans" font-size="10.00">clonalframeml_withoutST38</text>
</g>
<!-- 38&#45;&gt;40 -->
<g id="edge74" class="edge"><title>38&#45;&gt;40</title>
<path fill="none" stroke="grey" stroke-width="2" d="M686.421,-575.876C705.504,-566.469 729.363,-554.708 749.731,-544.667"/>
<polygon fill="grey" stroke="grey" stroke-width="2" points="751.392,-547.751 758.814,-540.19 748.297,-541.472 751.392,-547.751"/>
</g>
<!-- 39&#45;&gt;30 -->
<g id="edge57" class="edge"><title>39&#45;&gt;30</title>
<path fill="none" stroke="grey" stroke-width="2" d="M845.186,-647.631C854.175,-638.038 864.198,-625.374 869.684,-612 887.939,-567.498 900.024,-546.059 876.684,-504 869.554,-491.151 857.87,-481.01 845.415,-473.189"/>
<polygon fill="grey" stroke="grey" stroke-width="2" points="847.121,-470.133 836.716,-468.14 843.608,-476.187 847.121,-470.133"/>
</g>
<!-- 39&#45;&gt;40 -->
<g id="edge73" class="edge"><title>39&#45;&gt;40</title>
<path fill="none" stroke="grey" stroke-width="2" d="M839.069,-647.796C850.599,-629.514 864.503,-599.993 853.684,-576 848.506,-564.518 839.475,-554.523 829.968,-546.402"/>
<polygon fill="grey" stroke="grey" stroke-width="2" points="831.952,-543.508 821.944,-540.029 827.598,-548.989 831.952,-543.508"/>
</g>
<!-- 43 -->
<g id="node44" class="node"><title>43</title>
<path fill="none" stroke="#59d856" stroke-width="2" d="M832.684,-612C832.684,-612 748.684,-612 748.684,-612 742.684,-612 736.684,-606 736.684,-600 736.684,-600 736.684,-588 736.684,-588 736.684,-582 742.684,-576 748.684,-576 748.684,-576 832.684,-576 832.684,-576 838.684,-576 844.684,-582 844.684,-588 844.684,-588 844.684,-600 844.684,-600 844.684,-606 838.684,-612 832.684,-612"/>
<text text-anchor="middle" x="790.684" y="-591.5" font-family="sans" font-size="10.00">iqtree_withoutST38</text>
</g>
<!-- 39&#45;&gt;43 -->
<g id="edge77" class="edge"><title>39&#45;&gt;43</title>
<path fill="none" stroke="grey" stroke-width="2" d="M817.785,-647.697C813.687,-639.728 808.735,-630.1 804.191,-621.264"/>
<polygon fill="grey" stroke="grey" stroke-width="2" points="807.167,-619.396 799.481,-612.104 800.942,-622.598 807.167,-619.396"/>
</g>
<!-- 40&#45;&gt;30 -->
<g id="edge58" class="edge"><title>40&#45;&gt;30</title>
<path fill="none" stroke="grey" stroke-width="2" d="M793.19,-503.697C792.969,-495.983 792.705,-486.712 792.459,-478.112"/>
<polygon fill="grey" stroke="grey" stroke-width="2" points="795.957,-478 792.173,-468.104 788.96,-478.2 795.957,-478"/>
</g>
<!-- 41&#45;&gt;37 -->
<g id="edge67" class="edge"><title>41&#45;&gt;37</title>
<path fill="none" stroke="grey" stroke-width="2" d="M651.684,-791.697C651.684,-783.983 651.684,-774.712 651.684,-766.112"/>
<polygon fill="grey" stroke="grey" stroke-width="2" points="655.184,-766.104 651.684,-756.104 648.184,-766.104 655.184,-766.104"/>
</g>
<!-- 41&#45;&gt;39 -->
<g id="edge70" class="edge"><title>41&#45;&gt;39</title>
<path fill="none" stroke="grey" stroke-width="2" d="M673.497,-791.924C686.64,-781.59 703.683,-768.112 718.684,-756 745.839,-734.075 776.524,-708.732 798.228,-690.711"/>
<polygon fill="grey" stroke="grey" stroke-width="2" points="800.627,-693.269 806.08,-684.185 796.153,-687.885 800.627,-693.269"/>
</g>
<!-- 42&#45;&gt;38 -->
<g id="edge69" class="edge"><title>42&#45;&gt;38</title>
<path fill="none" stroke="grey" stroke-width="2" d="M685.561,-647.697C680.329,-639.559 673.984,-629.689 668.206,-620.701"/>
<polygon fill="grey" stroke="grey" stroke-width="2" points="671.032,-618.623 662.68,-612.104 665.143,-622.409 671.032,-618.623"/>
</g>
<!-- 42&#45;&gt;43 -->
<g id="edge78" class="edge"><title>42&#45;&gt;43</title>
<path fill="none" stroke="grey" stroke-width="2" d="M719.92,-647.697C731.872,-638.796 746.607,-627.823 759.531,-618.199"/>
<polygon fill="grey" stroke="grey" stroke-width="2" points="761.786,-620.884 767.716,-612.104 757.605,-615.27 761.786,-620.884"/>
</g>
<!-- 43&#45;&gt;40 -->
<g id="edge72" class="edge"><title>43&#45;&gt;40</title>
<path fill="none" stroke="grey" stroke-width="2" d="M791.426,-575.697C791.756,-567.983 792.154,-558.712 792.522,-550.112"/>
<polygon fill="grey" stroke="grey" stroke-width="2" points="796.02,-550.245 792.951,-540.104 789.026,-549.945 796.02,-550.245"/>
</g>
</g>
</svg>
