<?xml version="1.0" encoding="UTF-8" standalone="no"?>
<!DOCTYPE svg PUBLIC "-//W3C//DTD SVG 1.1//EN"
 "http://www.w3.org/Graphics/SVG/1.1/DTD/svg11.dtd">
<!-- Generated by graphviz version 2.38.0 (20140413.2041)
 -->
<!-- Title: snakemake_dag Pages: 1 -->
<svg width="1705pt" height="764pt"
 viewBox="0.00 0.00 1704.87 764.00" xmlns="http://www.w3.org/2000/svg" xmlns:xlink="http://www.w3.org/1999/xlink">
<g id="graph0" class="graph" transform="scale(1 1) rotate(0) translate(4 760)">
<title>snakemake_dag</title>
<polygon fill="white" stroke="none" points="-4,4 -4,-760 1700.87,-760 1700.87,4 -4,4"/>
<!-- 0 -->
<g id="node1" class="node"><title>0</title>
<path fill="none" stroke="#d88d56" stroke-width="2" d="M754.872,-36C754.872,-36 724.872,-36 724.872,-36 718.872,-36 712.872,-30 712.872,-24 712.872,-24 712.872,-12 712.872,-12 712.872,-6 718.872,-0 724.872,-0 724.872,-0 754.872,-0 754.872,-0 760.872,-0 766.872,-6 766.872,-12 766.872,-12 766.872,-24 766.872,-24 766.872,-30 760.872,-36 754.872,-36"/>
<text text-anchor="middle" x="739.872" y="-15.5" font-family="sans" font-size="10.00">all</text>
</g>
<!-- 1 -->
<g id="node2" class="node"><title>1</title>
<path fill="none" stroke="#c6d856" stroke-width="2" d="M170.372,-612C170.372,-612 139.372,-612 139.372,-612 133.372,-612 127.372,-606 127.372,-600 127.372,-600 127.372,-588 127.372,-588 127.372,-582 133.372,-576 139.372,-576 139.372,-576 170.372,-576 170.372,-576 176.372,-576 182.372,-582 182.372,-588 182.372,-588 182.372,-600 182.372,-600 182.372,-606 176.372,-612 170.372,-612"/>
<text text-anchor="middle" x="154.872" y="-591.5" font-family="sans" font-size="10.00">kraken2</text>
</g>
<!-- 1&#45;&gt;0 -->
<g id="edge8" class="edge"><title>1&#45;&gt;0</title>
<path fill="none" stroke="grey" stroke-width="2" d="M127.345,-582.177C83.5432,-562.933 2.87151,-518.35 2.87151,-451 2.87151,-451 2.87151,-451 2.87151,-161 2.87151,-120.553 -8.61453,-98.581 21.8715,-72 73.4618,-27.018 562.427,-20.2104 702.527,-19.1824"/>
<polygon fill="grey" stroke="grey" stroke-width="2" points="702.777,-22.6809 712.753,-19.1132 702.729,-15.681 702.777,-22.6809"/>
</g>
<!-- 2 -->
<g id="node3" class="node"><title>2</title>
<path fill="none" stroke="#d8cb56" stroke-width="2" d="M457.872,-252C457.872,-252 427.872,-252 427.872,-252 421.872,-252 415.872,-246 415.872,-240 415.872,-240 415.872,-228 415.872,-228 415.872,-222 421.872,-216 427.872,-216 427.872,-216 457.872,-216 457.872,-216 463.872,-216 469.872,-222 469.872,-228 469.872,-228 469.872,-240 469.872,-240 469.872,-246 463.872,-252 457.872,-252"/>
<text text-anchor="middle" x="442.872" y="-231.5" font-family="sans" font-size="10.00">quast</text>
</g>
<!-- 2&#45;&gt;0 -->
<g id="edge7" class="edge"><title>2&#45;&gt;0</title>
<path fill="none" stroke="grey" stroke-width="2" d="M425.982,-215.993C417.578,-206.315 408.29,-193.459 403.872,-180 398.881,-164.798 398.425,-159.044 403.872,-144 418.052,-104.833 427.993,-93.1616 463.872,-72 540.072,-27.0566 646.783,-19.1899 702.562,-18.4251"/>
<polygon fill="grey" stroke="grey" stroke-width="2" points="702.713,-21.9243 712.69,-18.3577 702.667,-14.9244 702.713,-21.9243"/>
</g>
<!-- 8 -->
<g id="node9" class="node"><title>8</title>
<path fill="none" stroke="#56a9d8" stroke-width="2" d="M594.872,-180C594.872,-180 564.872,-180 564.872,-180 558.872,-180 552.872,-174 552.872,-168 552.872,-168 552.872,-156 552.872,-156 552.872,-150 558.872,-144 564.872,-144 564.872,-144 594.872,-144 594.872,-144 600.872,-144 606.872,-150 606.872,-156 606.872,-156 606.872,-168 606.872,-168 606.872,-174 600.872,-180 594.872,-180"/>
<text text-anchor="middle" x="579.872" y="-159.5" font-family="sans" font-size="10.00">multiqc</text>
</g>
<!-- 2&#45;&gt;8 -->
<g id="edge34" class="edge"><title>2&#45;&gt;8</title>
<path fill="none" stroke="grey" stroke-width="2" d="M469.938,-219.17C491.048,-208.384 520.566,-193.302 543.701,-181.481"/>
<polygon fill="grey" stroke="grey" stroke-width="2" points="545.549,-184.468 552.861,-176.801 542.363,-178.234 545.549,-184.468"/>
</g>
<!-- 3 -->
<g id="node4" class="node"><title>3</title>
<path fill="none" stroke="#8fd856" stroke-width="2" d="M210.872,-180C210.872,-180 178.872,-180 178.872,-180 172.872,-180 166.872,-174 166.872,-168 166.872,-168 166.872,-156 166.872,-156 166.872,-150 172.872,-144 178.872,-144 178.872,-144 210.872,-144 210.872,-144 216.872,-144 222.872,-150 222.872,-156 222.872,-156 222.872,-168 222.872,-168 222.872,-174 216.872,-180 210.872,-180"/>
<text text-anchor="middle" x="194.872" y="-159.5" font-family="sans" font-size="10.00">abricate</text>
</g>
<!-- 3&#45;&gt;0 -->
<g id="edge12" class="edge"><title>3&#45;&gt;0</title>
<path fill="none" stroke="grey" stroke-width="2" d="M168.648,-143.986C143.038,-125.343 110.765,-95.0261 131.872,-72 170.481,-29.878 575.718,-21.1112 702.307,-19.3951"/>
<polygon fill="grey" stroke="grey" stroke-width="2" points="702.695,-22.8905 712.649,-19.2623 702.605,-15.8911 702.695,-22.8905"/>
</g>
<!-- 9 -->
<g id="node10" class="node"><title>9</title>
<path fill="none" stroke="#56d8a2" stroke-width="2" d="M236.372,-108C236.372,-108 153.372,-108 153.372,-108 147.372,-108 141.372,-102 141.372,-96 141.372,-96 141.372,-84 141.372,-84 141.372,-78 147.372,-72 153.372,-72 153.372,-72 236.372,-72 236.372,-72 242.372,-72 248.372,-78 248.372,-84 248.372,-84 248.372,-96 248.372,-96 248.372,-102 242.372,-108 236.372,-108"/>
<text text-anchor="middle" x="194.872" y="-87.5" font-family="sans" font-size="10.00">abricate_summary</text>
</g>
<!-- 3&#45;&gt;9 -->
<g id="edge36" class="edge"><title>3&#45;&gt;9</title>
<path fill="none" stroke="grey" stroke-width="2" d="M194.872,-143.697C194.872,-135.983 194.872,-126.712 194.872,-118.112"/>
<polygon fill="grey" stroke="grey" stroke-width="2" points="198.372,-118.104 194.872,-108.104 191.372,-118.104 198.372,-118.104"/>
</g>
<!-- 4 -->
<g id="node5" class="node"><title>4</title>
<path fill="none" stroke="#5663d8" stroke-width="2" d="M317.372,-108C317.372,-108 278.372,-108 278.372,-108 272.372,-108 266.372,-102 266.372,-96 266.372,-96 266.372,-84 266.372,-84 266.372,-78 272.372,-72 278.372,-72 278.372,-72 317.372,-72 317.372,-72 323.372,-72 329.372,-78 329.372,-84 329.372,-84 329.372,-96 329.372,-96 329.372,-102 323.372,-108 317.372,-108"/>
<text text-anchor="middle" x="297.872" y="-87.5" font-family="sans" font-size="10.00">amrfinder</text>
</g>
<!-- 4&#45;&gt;0 -->
<g id="edge25" class="edge"><title>4&#45;&gt;0</title>
<path fill="none" stroke="grey" stroke-width="2" d="M329.508,-76.2743C334.269,-74.662 339.162,-73.1702 343.872,-72 473.211,-39.8651 631.47,-26.1119 702.382,-21.2499"/>
<polygon fill="grey" stroke="grey" stroke-width="2" points="702.851,-24.7265 712.596,-20.5701 702.386,-17.7419 702.851,-24.7265"/>
</g>
<!-- 5 -->
<g id="node6" class="node"><title>5</title>
<path fill="none" stroke="#56d892" stroke-width="2" d="M541.872,-108C541.872,-108 511.872,-108 511.872,-108 505.872,-108 499.872,-102 499.872,-96 499.872,-96 499.872,-84 499.872,-84 499.872,-78 505.872,-72 511.872,-72 511.872,-72 541.872,-72 541.872,-72 547.872,-72 553.872,-78 553.872,-84 553.872,-84 553.872,-96 553.872,-96 553.872,-102 547.872,-108 541.872,-108"/>
<text text-anchor="middle" x="526.872" y="-87.5" font-family="sans" font-size="10.00">mlst</text>
</g>
<!-- 5&#45;&gt;0 -->
<g id="edge17" class="edge"><title>5&#45;&gt;0</title>
<path fill="none" stroke="grey" stroke-width="2" d="M554.079,-77.2997C558.655,-75.4527 563.377,-73.6202 567.872,-72 613.889,-55.4117 667.944,-39.2921 703,-29.2711"/>
<polygon fill="grey" stroke="grey" stroke-width="2" points="704.136,-32.5868 712.799,-26.4872 702.223,-25.8532 704.136,-32.5868"/>
</g>
<!-- 6 -->
<g id="node7" class="node"><title>6</title>
<path fill="none" stroke="#9fd856" stroke-width="2" d="M72.8715,-108C72.8715,-108 42.8715,-108 42.8715,-108 36.8715,-108 30.8715,-102 30.8715,-96 30.8715,-96 30.8715,-84 30.8715,-84 30.8715,-78 36.8715,-72 42.8715,-72 42.8715,-72 72.8715,-72 72.8715,-72 78.8715,-72 84.8715,-78 84.8715,-84 84.8715,-84 84.8715,-96 84.8715,-96 84.8715,-102 78.8715,-108 72.8715,-108"/>
<text text-anchor="middle" x="57.8715" y="-87.5" font-family="sans" font-size="10.00">prokka</text>
</g>
<!-- 6&#45;&gt;0 -->
<g id="edge11" class="edge"><title>6&#45;&gt;0</title>
<path fill="none" stroke="grey" stroke-width="2" d="M85.2689,-76.2788C89.7389,-74.6014 94.3782,-73.089 98.8715,-72 214.881,-43.8838 584.198,-25.764 702.812,-20.5539"/>
<polygon fill="grey" stroke="grey" stroke-width="2" points="703.015,-24.0485 712.853,-20.1175 702.711,-17.0551 703.015,-24.0485"/>
</g>
<!-- 7 -->
<g id="node8" class="node"><title>7</title>
<path fill="none" stroke="#5682d8" stroke-width="2" d="M385.372,-252C385.372,-252 338.372,-252 338.372,-252 332.372,-252 326.372,-246 326.372,-240 326.372,-240 326.372,-228 326.372,-228 326.372,-222 332.372,-216 338.372,-216 338.372,-216 385.372,-216 385.372,-216 391.372,-216 397.372,-222 397.372,-228 397.372,-228 397.372,-240 397.372,-240 397.372,-246 391.372,-252 385.372,-252"/>
<text text-anchor="middle" x="361.872" y="-231.5" font-family="sans" font-size="10.00">ezclermont</text>
</g>
<!-- 7&#45;&gt;0 -->
<g id="edge26" class="edge"><title>7&#45;&gt;0</title>
<path fill="none" stroke="grey" stroke-width="2" d="M362.289,-215.756C364.095,-182.385 373.123,-109.008 416.872,-72 459.551,-35.8964 627.41,-23.9823 702.828,-20.4012"/>
<polygon fill="grey" stroke="grey" stroke-width="2" points="703.002,-23.897 712.834,-19.9495 702.686,-16.9041 703.002,-23.897"/>
</g>
<!-- 19 -->
<g id="node20" class="node"><title>19</title>
<path fill="none" stroke="#56b9d8" stroke-width="2" d="M522.872,-180C522.872,-180 424.872,-180 424.872,-180 418.872,-180 412.872,-174 412.872,-168 412.872,-168 412.872,-156 412.872,-156 412.872,-150 418.872,-144 424.872,-144 424.872,-144 522.872,-144 522.872,-144 528.872,-144 534.872,-150 534.872,-156 534.872,-156 534.872,-168 534.872,-168 534.872,-174 528.872,-180 522.872,-180"/>
<text text-anchor="middle" x="473.872" y="-159.5" font-family="sans" font-size="10.00">ezclermont_summary</text>
</g>
<!-- 7&#45;&gt;19 -->
<g id="edge49" class="edge"><title>7&#45;&gt;19</title>
<path fill="none" stroke="grey" stroke-width="2" d="M389.27,-215.876C403.778,-206.808 421.788,-195.552 437.457,-185.759"/>
<polygon fill="grey" stroke="grey" stroke-width="2" points="439.743,-188.458 446.368,-180.19 436.033,-182.522 439.743,-188.458"/>
</g>
<!-- 8&#45;&gt;0 -->
<g id="edge23" class="edge"><title>8&#45;&gt;0</title>
<path fill="none" stroke="grey" stroke-width="2" d="M552.743,-146.615C527.881,-133.155 494.404,-114.215 490.872,-108 482.965,-94.0899 480.804,-84.4358 490.872,-72 517.029,-39.6891 639.198,-26.2455 702.15,-21.3878"/>
<polygon fill="grey" stroke="grey" stroke-width="2" points="702.735,-24.8543 712.451,-20.629 702.221,-17.8732 702.735,-24.8543"/>
</g>
<!-- 9&#45;&gt;0 -->
<g id="edge18" class="edge"><title>9&#45;&gt;0</title>
<path fill="none" stroke="grey" stroke-width="2" d="M248.518,-73.7316C251.334,-73.1055 254.131,-72.5227 256.872,-72 421.228,-40.6543 620.843,-26.0655 702.42,-21.0842"/>
<polygon fill="grey" stroke="grey" stroke-width="2" points="702.907,-24.5614 712.68,-20.4707 702.489,-17.5739 702.907,-24.5614"/>
</g>
<!-- 10 -->
<g id="node11" class="node"><title>10</title>
<path fill="none" stroke="#d89c56" stroke-width="2" d="M866.872,-684C866.872,-684 836.872,-684 836.872,-684 830.872,-684 824.872,-678 824.872,-672 824.872,-672 824.872,-660 824.872,-660 824.872,-654 830.872,-648 836.872,-648 836.872,-648 866.872,-648 866.872,-648 872.872,-648 878.872,-654 878.872,-660 878.872,-660 878.872,-672 878.872,-672 878.872,-678 872.872,-684 866.872,-684"/>
<text text-anchor="middle" x="851.872" y="-663.5" font-family="sans" font-size="10.00">snippy</text>
</g>
<!-- 10&#45;&gt;0 -->
<g id="edge5" class="edge"><title>10&#45;&gt;0</title>
<path fill="none" stroke="grey" stroke-width="2" d="M877.662,-647.942C910.174,-624.155 961.872,-577.729 961.872,-523 961.872,-523 961.872,-523 961.872,-161 961.872,-116.473 950.124,-100.45 915.872,-72 876.044,-38.919 816.006,-26.4813 777.373,-21.8081"/>
<polygon fill="grey" stroke="grey" stroke-width="2" points="777.399,-18.2903 767.078,-20.6852 776.64,-25.249 777.399,-18.2903"/>
</g>
<!-- 29 -->
<g id="node30" class="node"><title>29</title>
<path fill="none" stroke="#d8ac56" stroke-width="2" d="M873.872,-612C873.872,-612 829.872,-612 829.872,-612 823.872,-612 817.872,-606 817.872,-600 817.872,-600 817.872,-588 817.872,-588 817.872,-582 823.872,-576 829.872,-576 829.872,-576 873.872,-576 873.872,-576 879.872,-576 885.872,-582 885.872,-588 885.872,-588 885.872,-600 885.872,-600 885.872,-606 879.872,-612 873.872,-612"/>
<text text-anchor="middle" x="851.872" y="-591.5" font-family="sans" font-size="10.00">snippycore</text>
</g>
<!-- 10&#45;&gt;29 -->
<g id="edge62" class="edge"><title>10&#45;&gt;29</title>
<path fill="none" stroke="grey" stroke-width="2" d="M851.872,-647.697C851.872,-639.983 851.872,-630.712 851.872,-622.112"/>
<polygon fill="grey" stroke="grey" stroke-width="2" points="855.372,-622.104 851.872,-612.104 848.372,-622.104 855.372,-622.104"/>
</g>
<!-- 11 -->
<g id="node12" class="node"><title>11</title>
<path fill="none" stroke="#d86656" stroke-width="2" d="M877.872,-396C877.872,-396 847.872,-396 847.872,-396 841.872,-396 835.872,-390 835.872,-384 835.872,-384 835.872,-372 835.872,-372 835.872,-366 841.872,-360 847.872,-360 847.872,-360 877.872,-360 877.872,-360 883.872,-360 889.872,-366 889.872,-372 889.872,-372 889.872,-384 889.872,-384 889.872,-390 883.872,-396 877.872,-396"/>
<text text-anchor="middle" x="862.872" y="-375.5" font-family="sans" font-size="10.00">maskrc</text>
</g>
<!-- 11&#45;&gt;0 -->
<g id="edge2" class="edge"><title>11&#45;&gt;0</title>
<path fill="none" stroke="grey" stroke-width="2" d="M879.434,-359.669C887.919,-349.896 897.731,-337.053 903.872,-324 921.13,-287.315 923.872,-275.542 923.872,-235 923.872,-235 923.872,-235 923.872,-161 923.872,-118.331 918.648,-101.554 887.872,-72 857.586,-42.9164 810.249,-29.6478 777.293,-23.6895"/>
<polygon fill="grey" stroke="grey" stroke-width="2" points="777.578,-20.1887 767.139,-22.001 776.429,-27.0939 777.578,-20.1887"/>
</g>
<!-- 14 -->
<g id="node15" class="node"><title>14</title>
<path fill="none" stroke="#56d8c9" stroke-width="2" d="M883.372,-324C883.372,-324 806.372,-324 806.372,-324 800.372,-324 794.372,-318 794.372,-312 794.372,-312 794.372,-300 794.372,-300 794.372,-294 800.372,-288 806.372,-288 806.372,-288 883.372,-288 883.372,-288 889.372,-288 895.372,-294 895.372,-300 895.372,-300 895.372,-312 895.372,-312 895.372,-318 889.372,-324 883.372,-324"/>
<text text-anchor="middle" x="844.872" y="-303.5" font-family="sans" font-size="10.00">snp_comparisons</text>
</g>
<!-- 11&#45;&gt;14 -->
<g id="edge42" class="edge"><title>11&#45;&gt;14</title>
<path fill="none" stroke="grey" stroke-width="2" d="M858.422,-359.697C856.417,-351.898 854.002,-342.509 851.77,-333.829"/>
<polygon fill="grey" stroke="grey" stroke-width="2" points="855.15,-332.918 849.27,-324.104 848.371,-334.661 855.15,-332.918"/>
</g>
<!-- 12 -->
<g id="node13" class="node"><title>12</title>
<path fill="none" stroke="#56d882" stroke-width="2" d="M651.872,-108C651.872,-108 621.872,-108 621.872,-108 615.872,-108 609.872,-102 609.872,-96 609.872,-96 609.872,-84 609.872,-84 609.872,-78 615.872,-72 621.872,-72 621.872,-72 651.872,-72 651.872,-72 657.872,-72 663.872,-78 663.872,-84 663.872,-84 663.872,-96 663.872,-96 663.872,-102 657.872,-108 651.872,-108"/>
<text text-anchor="middle" x="636.872" y="-87.5" font-family="sans" font-size="10.00">fastqc</text>
</g>
<!-- 12&#45;&gt;0 -->
<g id="edge16" class="edge"><title>12&#45;&gt;0</title>
<path fill="none" stroke="grey" stroke-width="2" d="M662.068,-71.8761C675.286,-62.8931 691.664,-51.7625 705.978,-42.0341"/>
<polygon fill="grey" stroke="grey" stroke-width="2" points="708.275,-44.7055 714.578,-36.1898 704.34,-38.9159 708.275,-44.7055"/>
</g>
<!-- 13 -->
<g id="node14" class="node"><title>13</title>
<path fill="none" stroke="#56d8a9" stroke-width="2" d="M1072.37,-324C1072.37,-324 1037.37,-324 1037.37,-324 1031.37,-324 1025.37,-318 1025.37,-312 1025.37,-312 1025.37,-300 1025.37,-300 1025.37,-294 1031.37,-288 1037.37,-288 1037.37,-288 1072.37,-288 1072.37,-288 1078.37,-288 1084.37,-294 1084.37,-300 1084.37,-300 1084.37,-312 1084.37,-312 1084.37,-318 1078.37,-324 1072.37,-324"/>
<text text-anchor="middle" x="1054.87" y="-303.5" font-family="sans" font-size="10.00">unicycler</text>
</g>
<!-- 13&#45;&gt;0 -->
<g id="edge19" class="edge"><title>13&#45;&gt;0</title>
<path fill="none" stroke="grey" stroke-width="2" d="M1084.53,-297.465C1107.1,-289.999 1136.65,-276.101 1150.87,-252 1175.17,-210.828 1211.94,-150.324 1135.87,-72 1086.76,-21.4351 866.04,-17.7524 777.143,-18.3823"/>
<polygon fill="grey" stroke="grey" stroke-width="2" points="776.943,-14.8839 766.976,-18.4777 777.008,-21.8836 776.943,-14.8839"/>
</g>
<!-- 17 -->
<g id="node18" class="node"><title>17</title>
<path fill="none" stroke="#56d8b9" stroke-width="2" d="M1105.87,-180C1105.87,-180 1027.87,-180 1027.87,-180 1021.87,-180 1015.87,-174 1015.87,-168 1015.87,-168 1015.87,-156 1015.87,-156 1015.87,-150 1021.87,-144 1027.87,-144 1027.87,-144 1105.87,-144 1105.87,-144 1111.87,-144 1117.87,-150 1117.87,-156 1117.87,-156 1117.87,-168 1117.87,-168 1117.87,-174 1111.87,-180 1105.87,-180"/>
<text text-anchor="middle" x="1066.87" y="-159.5" font-family="sans" font-size="10.00">get_ESBL_contigs</text>
</g>
<!-- 13&#45;&gt;17 -->
<g id="edge47" class="edge"><title>13&#45;&gt;17</title>
<path fill="none" stroke="grey" stroke-width="2" d="M1039.26,-287.774C1031.5,-278.03 1022.93,-265.184 1018.87,-252 1014.17,-236.707 1013.12,-230.929 1018.87,-216 1022.97,-205.358 1030.31,-195.528 1038.04,-187.298"/>
<polygon fill="grey" stroke="grey" stroke-width="2" points="1040.54,-189.747 1045.16,-180.213 1035.6,-184.785 1040.54,-189.747"/>
</g>
<!-- 32 -->
<g id="node33" class="node"><title>32</title>
<path fill="none" stroke="#68d856" stroke-width="2" d="M1129.87,-252C1129.87,-252 1039.87,-252 1039.87,-252 1033.87,-252 1027.87,-246 1027.87,-240 1027.87,-240 1027.87,-228 1027.87,-228 1027.87,-222 1033.87,-216 1039.87,-216 1039.87,-216 1129.87,-216 1129.87,-216 1135.87,-216 1141.87,-222 1141.87,-228 1141.87,-228 1141.87,-240 1141.87,-240 1141.87,-246 1135.87,-252 1129.87,-252"/>
<text text-anchor="middle" x="1084.87" y="-231.5" font-family="sans" font-size="10.00">amrfinder_nanopore</text>
</g>
<!-- 13&#45;&gt;32 -->
<g id="edge66" class="edge"><title>13&#45;&gt;32</title>
<path fill="none" stroke="grey" stroke-width="2" d="M1062.29,-287.697C1065.67,-279.813 1069.74,-270.304 1073.49,-261.546"/>
<polygon fill="grey" stroke="grey" stroke-width="2" points="1076.82,-262.675 1077.54,-252.104 1070.38,-259.917 1076.82,-262.675"/>
</g>
<!-- 14&#45;&gt;0 -->
<g id="edge21" class="edge"><title>14&#45;&gt;0</title>
<path fill="none" stroke="grey" stroke-width="2" d="M853.202,-287.701C871.752,-246.424 911.378,-140.51 865.872,-72 846.256,-42.4693 806.628,-29.3558 777.023,-23.5551"/>
<polygon fill="grey" stroke="grey" stroke-width="2" points="777.474,-20.0807 767.019,-21.7933 776.26,-26.9746 777.474,-20.0807"/>
</g>
<!-- 15 -->
<g id="node16" class="node"><title>15</title>
<path fill="none" stroke="#56d863" stroke-width="2" d="M769.872,-252C769.872,-252 669.872,-252 669.872,-252 663.872,-252 657.872,-246 657.872,-240 657.872,-240 657.872,-228 657.872,-228 657.872,-222 663.872,-216 669.872,-216 669.872,-216 769.872,-216 769.872,-216 775.872,-216 781.872,-222 781.872,-228 781.872,-228 781.872,-240 781.872,-240 781.872,-246 775.872,-252 769.872,-252"/>
<text text-anchor="middle" x="719.872" y="-231.5" font-family="sans" font-size="10.00">plot_snp_comparisons</text>
</g>
<!-- 14&#45;&gt;15 -->
<g id="edge43" class="edge"><title>14&#45;&gt;15</title>
<path fill="none" stroke="grey" stroke-width="2" d="M814.293,-287.876C797.798,-278.639 777.248,-267.131 759.535,-257.212"/>
<polygon fill="grey" stroke="grey" stroke-width="2" points="761.003,-254.022 750.567,-252.19 757.582,-260.13 761.003,-254.022"/>
</g>
<!-- 16 -->
<g id="node17" class="node"><title>16</title>
<path fill="none" stroke="#bed856" stroke-width="2" d="M791.872,-180C791.872,-180 729.872,-180 729.872,-180 723.872,-180 717.872,-174 717.872,-168 717.872,-168 717.872,-156 717.872,-156 717.872,-150 723.872,-144 729.872,-144 729.872,-144 791.872,-144 791.872,-144 797.872,-144 803.872,-150 803.872,-156 803.872,-156 803.872,-168 803.872,-168 803.872,-174 797.872,-180 791.872,-180"/>
<text text-anchor="middle" x="760.872" y="-159.5" font-family="sans" font-size="10.00">print_travelers</text>
</g>
<!-- 14&#45;&gt;16 -->
<g id="edge44" class="edge"><title>14&#45;&gt;16</title>
<path fill="none" stroke="grey" stroke-width="2" d="M834.739,-287.871C820.171,-263.244 793.192,-217.638 776.183,-188.885"/>
<polygon fill="grey" stroke="grey" stroke-width="2" points="779.144,-187.014 771.04,-180.189 773.119,-190.578 779.144,-187.014"/>
</g>
<!-- 26 -->
<g id="node27" class="node"><title>26</title>
<path fill="none" stroke="#70d856" stroke-width="2" d="M845.372,-108C845.372,-108 732.372,-108 732.372,-108 726.372,-108 720.372,-102 720.372,-96 720.372,-96 720.372,-84 720.372,-84 720.372,-78 726.372,-72 732.372,-72 732.372,-72 845.372,-72 845.372,-72 851.372,-72 857.372,-78 857.372,-84 857.372,-84 857.372,-96 857.372,-96 857.372,-102 851.372,-108 845.372,-108"/>
<text text-anchor="middle" x="788.872" y="-87.5" font-family="sans" font-size="10.00">comparison_phylogroups</text>
</g>
<!-- 14&#45;&gt;26 -->
<g id="edge58" class="edge"><title>14&#45;&gt;26</title>
<path fill="none" stroke="grey" stroke-width="2" d="M842.765,-287.753C838.831,-257.928 829.251,-195.011 812.872,-144 810.03,-135.152 806.132,-125.819 802.303,-117.491"/>
<polygon fill="grey" stroke="grey" stroke-width="2" points="805.369,-115.789 797.907,-108.268 799.049,-118.801 805.369,-115.789"/>
</g>
<!-- 15&#45;&gt;0 -->
<g id="edge15" class="edge"><title>15&#45;&gt;0</title>
<path fill="none" stroke="grey" stroke-width="2" d="M708.207,-215.868C695.004,-197.121 672.275,-166.714 648.872,-144 629.736,-125.428 612.797,-131.851 600.872,-108 593.716,-93.6892 591.794,-85.1759 600.872,-72 623.546,-39.0873 669.601,-26.5988 702.483,-21.8686"/>
<polygon fill="grey" stroke="grey" stroke-width="2" points="703.165,-25.3104 712.65,-20.5894 702.291,-18.3652 703.165,-25.3104"/>
</g>
<!-- 15&#45;&gt;16 -->
<g id="edge45" class="edge"><title>15&#45;&gt;16</title>
<path fill="none" stroke="grey" stroke-width="2" d="M730.006,-215.697C734.723,-207.644 740.433,-197.894 745.653,-188.982"/>
<polygon fill="grey" stroke="grey" stroke-width="2" points="748.819,-190.502 750.853,-180.104 742.779,-186.964 748.819,-190.502"/>
</g>
<!-- 16&#45;&gt;0 -->
<g id="edge9" class="edge"><title>16&#45;&gt;0</title>
<path fill="none" stroke="grey" stroke-width="2" d="M738.276,-143.963C727.812,-134.635 716.476,-122.107 710.872,-108 702.595,-87.1651 711.66,-62.9404 721.78,-45.0296"/>
<polygon fill="grey" stroke="grey" stroke-width="2" points="724.887,-46.6553 727.082,-36.2903 718.902,-43.0244 724.887,-46.6553"/>
</g>
<!-- 16&#45;&gt;26 -->
<g id="edge60" class="edge"><title>16&#45;&gt;26</title>
<path fill="none" stroke="grey" stroke-width="2" d="M767.793,-143.697C770.946,-135.813 774.75,-126.304 778.253,-117.546"/>
<polygon fill="grey" stroke="grey" stroke-width="2" points="781.565,-118.689 782.03,-108.104 775.066,-116.089 781.565,-118.689"/>
</g>
<!-- 17&#45;&gt;0 -->
<g id="edge20" class="edge"><title>17&#45;&gt;0</title>
<path fill="none" stroke="grey" stroke-width="2" d="M1088.93,-143.663C1110.39,-124.736 1137.15,-94.1733 1117.87,-72 1073.94,-21.4767 863.844,-17.6915 777.278,-18.3388"/>
<polygon fill="grey" stroke="grey" stroke-width="2" points="777.077,-14.8405 767.112,-18.4399 777.147,-21.8402 777.077,-14.8405"/>
</g>
<!-- 18 -->
<g id="node19" class="node"><title>18</title>
<path fill="none" stroke="#56d873" stroke-width="2" d="M1097.37,-108C1097.37,-108 1002.37,-108 1002.37,-108 996.372,-108 990.372,-102 990.372,-96 990.372,-96 990.372,-84 990.372,-84 990.372,-78 996.372,-72 1002.37,-72 1002.37,-72 1097.37,-72 1097.37,-72 1103.37,-72 1109.37,-78 1109.37,-84 1109.37,-84 1109.37,-96 1109.37,-96 1109.37,-102 1103.37,-108 1097.37,-108"/>
<text text-anchor="middle" x="1049.87" y="-87.5" font-family="sans" font-size="10.00">prokka_ESBL_contigs</text>
</g>
<!-- 17&#45;&gt;18 -->
<g id="edge48" class="edge"><title>17&#45;&gt;18</title>
<path fill="none" stroke="grey" stroke-width="2" d="M1062.67,-143.697C1060.78,-135.898 1058.5,-126.509 1056.39,-117.829"/>
<polygon fill="grey" stroke="grey" stroke-width="2" points="1059.79,-116.996 1054.03,-108.104 1052.98,-118.648 1059.79,-116.996"/>
</g>
<!-- 18&#45;&gt;0 -->
<g id="edge14" class="edge"><title>18&#45;&gt;0</title>
<path fill="none" stroke="grey" stroke-width="2" d="M990.103,-75.2429C985.289,-74.1429 980.499,-73.0512 975.872,-72 905.632,-56.0449 823.568,-37.6768 777.058,-27.2922"/>
<polygon fill="grey" stroke="grey" stroke-width="2" points="777.658,-23.8401 767.136,-25.0775 776.133,-30.672 777.658,-23.8401"/>
</g>
<!-- 19&#45;&gt;0 -->
<g id="edge24" class="edge"><title>19&#45;&gt;0</title>
<path fill="none" stroke="grey" stroke-width="2" d="M469.738,-143.95C466.032,-124.128 463.527,-91.628 480.872,-72 509.661,-39.4208 637.687,-26.0353 702.302,-21.2778"/>
<polygon fill="grey" stroke="grey" stroke-width="2" points="702.746,-24.7552 712.476,-20.5616 702.255,-17.7725 702.746,-24.7552"/>
</g>
<!-- 19&#45;&gt;26 -->
<g id="edge57" class="edge"><title>19&#45;&gt;26</title>
<path fill="none" stroke="grey" stroke-width="2" d="M534.933,-146.075C537.954,-145.367 540.946,-144.672 543.872,-144 599.31,-131.274 662.003,-117.727 710.093,-107.515"/>
<polygon fill="grey" stroke="grey" stroke-width="2" points="711.068,-110.886 720.125,-105.388 709.616,-104.038 711.068,-110.886"/>
</g>
<!-- 20 -->
<g id="node21" class="node"><title>20</title>
<path fill="none" stroke="#afd856" stroke-width="2" d="M1684.87,-324C1684.87,-324 1610.87,-324 1610.87,-324 1604.87,-324 1598.87,-318 1598.87,-312 1598.87,-312 1598.87,-300 1598.87,-300 1598.87,-294 1604.87,-288 1610.87,-288 1610.87,-288 1684.87,-288 1684.87,-288 1690.87,-288 1696.87,-294 1696.87,-300 1696.87,-300 1696.87,-312 1696.87,-312 1696.87,-318 1690.87,-324 1684.87,-324"/>
<text text-anchor="middle" x="1647.87" y="-303.5" font-family="sans" font-size="10.00">kraken2_controls</text>
</g>
<!-- 20&#45;&gt;0 -->
<g id="edge10" class="edge"><title>20&#45;&gt;0</title>
<path fill="none" stroke="grey" stroke-width="2" d="M1646.02,-287.647C1642.01,-256.56 1630.32,-190.301 1599.87,-144 1572.48,-102.351 1560.11,-90.6148 1513.87,-72 1377.77,-17.2149 912.806,-17.291 777.247,-18.5303"/>
<polygon fill="grey" stroke="grey" stroke-width="2" points="776.937,-15.0331 766.972,-18.6325 777.006,-22.0327 776.937,-15.0331"/>
</g>
<!-- 21 -->
<g id="node22" class="node"><title>21</title>
<path fill="none" stroke="#d87556" stroke-width="2" d="M1530.37,-252C1530.37,-252 1467.37,-252 1467.37,-252 1461.37,-252 1455.37,-246 1455.37,-240 1455.37,-240 1455.37,-228 1455.37,-228 1455.37,-222 1461.37,-216 1467.37,-216 1467.37,-216 1530.37,-216 1530.37,-216 1536.37,-216 1542.37,-222 1542.37,-228 1542.37,-228 1542.37,-240 1542.37,-240 1542.37,-246 1536.37,-252 1530.37,-252"/>
<text text-anchor="middle" x="1498.87" y="-231.5" font-family="sans" font-size="10.00">quast_controls</text>
</g>
<!-- 21&#45;&gt;0 -->
<g id="edge3" class="edge"><title>21&#45;&gt;0</title>
<path fill="none" stroke="grey" stroke-width="2" d="M1488.85,-215.759C1467.79,-181.367 1415.26,-104.735 1347.87,-72 1246.44,-22.7279 893.351,-18.7511 777.216,-18.8102"/>
<polygon fill="grey" stroke="grey" stroke-width="2" points="777.042,-15.3104 767.047,-18.8263 777.053,-22.3104 777.042,-15.3104"/>
</g>
<!-- 24 -->
<g id="node25" class="node"><title>24</title>
<path fill="none" stroke="#d88556" stroke-width="2" d="M1579.37,-180C1579.37,-180 1508.37,-180 1508.37,-180 1502.37,-180 1496.37,-174 1496.37,-168 1496.37,-168 1496.37,-156 1496.37,-156 1496.37,-150 1502.37,-144 1508.37,-144 1508.37,-144 1579.37,-144 1579.37,-144 1585.37,-144 1591.37,-150 1591.37,-156 1591.37,-156 1591.37,-168 1591.37,-168 1591.37,-174 1585.37,-180 1579.37,-180"/>
<text text-anchor="middle" x="1543.87" y="-159.5" font-family="sans" font-size="10.00">multiqc_controls</text>
</g>
<!-- 21&#45;&gt;24 -->
<g id="edge55" class="edge"><title>21&#45;&gt;24</title>
<path fill="none" stroke="grey" stroke-width="2" d="M1510,-215.697C1515.23,-207.559 1521.57,-197.689 1527.35,-188.701"/>
<polygon fill="grey" stroke="grey" stroke-width="2" points="1530.41,-190.409 1532.88,-180.104 1524.52,-186.623 1530.41,-190.409"/>
</g>
<!-- 22 -->
<g id="node23" class="node"><title>22</title>
<path fill="none" stroke="#d8bc56" stroke-width="2" d="M1425.37,-252C1425.37,-252 1368.37,-252 1368.37,-252 1362.37,-252 1356.37,-246 1356.37,-240 1356.37,-240 1356.37,-228 1356.37,-228 1356.37,-222 1362.37,-216 1368.37,-216 1368.37,-216 1425.37,-216 1425.37,-216 1431.37,-216 1437.37,-222 1437.37,-228 1437.37,-228 1437.37,-240 1437.37,-240 1437.37,-246 1431.37,-252 1425.37,-252"/>
<text text-anchor="middle" x="1396.87" y="-231.5" font-family="sans" font-size="10.00">mlst_controls</text>
</g>
<!-- 22&#45;&gt;0 -->
<g id="edge6" class="edge"><title>22&#45;&gt;0</title>
<path fill="none" stroke="grey" stroke-width="2" d="M1399.34,-215.848C1401.2,-197.084 1401.72,-166.663 1389.87,-144 1366.46,-99.2182 1348.61,-91.2068 1301.87,-72 1206.36,-32.7528 887.273,-22.2065 777.414,-19.704"/>
<polygon fill="grey" stroke="grey" stroke-width="2" points="777.226,-16.1991 767.152,-19.48 777.073,-23.1974 777.226,-16.1991"/>
</g>
<!-- 23 -->
<g id="node24" class="node"><title>23</title>
<path fill="none" stroke="#d85656" stroke-width="2" d="M1325.87,-252C1325.87,-252 1235.87,-252 1235.87,-252 1229.87,-252 1223.87,-246 1223.87,-240 1223.87,-240 1223.87,-228 1223.87,-228 1223.87,-222 1229.87,-216 1235.87,-216 1235.87,-216 1325.87,-216 1325.87,-216 1331.87,-216 1337.87,-222 1337.87,-228 1337.87,-228 1337.87,-240 1337.87,-240 1337.87,-246 1331.87,-252 1325.87,-252"/>
<text text-anchor="middle" x="1280.87" y="-231.5" font-family="sans" font-size="10.00">ezclermont_controls</text>
</g>
<!-- 23&#45;&gt;0 -->
<g id="edge1" class="edge"><title>23&#45;&gt;0</title>
<path fill="none" stroke="grey" stroke-width="2" d="M1330.43,-215.846C1346.56,-207.636 1362.67,-196.009 1371.87,-180 1379.85,-166.128 1380.28,-157.61 1371.87,-144 1308.45,-41.3817 903.176,-22.9488 777.189,-19.6885"/>
<polygon fill="grey" stroke="grey" stroke-width="2" points="776.982,-16.1826 766.9,-19.4404 776.813,-23.1806 776.982,-16.1826"/>
</g>
<!-- 25 -->
<g id="node26" class="node"><title>25</title>
<path fill="none" stroke="#56d8d8" stroke-width="2" d="M1351.37,-180C1351.37,-180 1210.37,-180 1210.37,-180 1204.37,-180 1198.37,-174 1198.37,-168 1198.37,-168 1198.37,-156 1198.37,-156 1198.37,-150 1204.37,-144 1210.37,-144 1210.37,-144 1351.37,-144 1351.37,-144 1357.37,-144 1363.37,-150 1363.37,-156 1363.37,-156 1363.37,-168 1363.37,-168 1363.37,-174 1357.37,-180 1351.37,-180"/>
<text text-anchor="middle" x="1280.87" y="-159.5" font-family="sans" font-size="10.00">ezclermont_summary_controls</text>
</g>
<!-- 23&#45;&gt;25 -->
<g id="edge56" class="edge"><title>23&#45;&gt;25</title>
<path fill="none" stroke="grey" stroke-width="2" d="M1280.87,-215.697C1280.87,-207.983 1280.87,-198.712 1280.87,-190.112"/>
<polygon fill="grey" stroke="grey" stroke-width="2" points="1284.37,-190.104 1280.87,-180.104 1277.37,-190.104 1284.37,-190.104"/>
</g>
<!-- 24&#45;&gt;0 -->
<g id="edge4" class="edge"><title>24&#45;&gt;0</title>
<path fill="none" stroke="grey" stroke-width="2" d="M1537.32,-143.711C1528.34,-122.679 1510.03,-88.0042 1481.87,-72 1420.32,-37.0158 919.776,-23.0773 777.477,-19.7989"/>
<polygon fill="grey" stroke="grey" stroke-width="2" points="777.176,-16.2913 767.099,-19.5642 777.018,-23.2895 777.176,-16.2913"/>
</g>
<!-- 25&#45;&gt;0 -->
<g id="edge22" class="edge"><title>25&#45;&gt;0</title>
<path fill="none" stroke="grey" stroke-width="2" d="M1268.99,-143.835C1253.46,-122.93 1224.17,-88.3876 1189.87,-72 1117,-37.1789 871.517,-24.1196 777.208,-20.3144"/>
<polygon fill="grey" stroke="grey" stroke-width="2" points="777.125,-16.8086 766.996,-19.9149 776.851,-23.8032 777.125,-16.8086"/>
</g>
<!-- 25&#45;&gt;26 -->
<g id="edge59" class="edge"><title>25&#45;&gt;26</title>
<path fill="none" stroke="grey" stroke-width="2" d="M1198.24,-149.244C1106.04,-136.126 957.95,-115.056 867.429,-102.177"/>
<polygon fill="grey" stroke="grey" stroke-width="2" points="867.891,-98.7075 857.498,-100.764 866.905,-105.638 867.891,-98.7075"/>
</g>
<!-- 26&#45;&gt;0 -->
<g id="edge13" class="edge"><title>26&#45;&gt;0</title>
<path fill="none" stroke="grey" stroke-width="2" d="M776.759,-71.6966C771.003,-63.4741 764.01,-53.4832 757.666,-44.4207"/>
<polygon fill="grey" stroke="grey" stroke-width="2" points="760.447,-42.2895 751.845,-36.1043 754.712,-46.3038 760.447,-42.2895"/>
</g>
<!-- 27 -->
<g id="node28" class="node"><title>27</title>
<path fill="none" stroke="#d6d856" stroke-width="2" d="M755.872,-756C755.872,-756 725.872,-756 725.872,-756 719.872,-756 713.872,-750 713.872,-744 713.872,-744 713.872,-732 713.872,-732 713.872,-726 719.872,-720 725.872,-720 725.872,-720 755.872,-720 755.872,-720 761.872,-720 767.872,-726 767.872,-732 767.872,-732 767.872,-744 767.872,-744 767.872,-750 761.872,-756 755.872,-756"/>
<text text-anchor="middle" x="740.872" y="-735.5" font-family="sans" font-size="10.00">fastp</text>
</g>
<!-- 27&#45;&gt;1 -->
<g id="edge27" class="edge"><title>27&#45;&gt;1</title>
<path fill="none" stroke="grey" stroke-width="2" d="M713.858,-732.708C663.969,-724.592 554.14,-705.837 462.872,-684 364.314,-660.419 250.156,-625.363 192.439,-607.081"/>
<polygon fill="grey" stroke="grey" stroke-width="2" points="193.259,-603.669 182.668,-603.976 191.138,-610.34 193.259,-603.669"/>
</g>
<!-- 27&#45;&gt;8 -->
<g id="edge35" class="edge"><title>27&#45;&gt;8</title>
<path fill="none" stroke="grey" stroke-width="2" d="M714.847,-719.998C682.039,-696.273 629.872,-649.916 629.872,-595 629.872,-595 629.872,-595 629.872,-305 629.872,-262.683 609.871,-217.092 595.169,-189.296"/>
<polygon fill="grey" stroke="grey" stroke-width="2" points="598.092,-187.345 590.232,-180.241 591.946,-190.697 598.092,-187.345"/>
</g>
<!-- 27&#45;&gt;10 -->
<g id="edge37" class="edge"><title>27&#45;&gt;10</title>
<path fill="none" stroke="grey" stroke-width="2" d="M768.025,-719.876C782.404,-710.808 800.253,-699.552 815.782,-689.759"/>
<polygon fill="grey" stroke="grey" stroke-width="2" points="818.022,-692.484 824.613,-684.19 814.288,-686.564 818.022,-692.484"/>
</g>
<!-- 27&#45;&gt;13 -->
<g id="edge40" class="edge"><title>27&#45;&gt;13</title>
<path fill="none" stroke="grey" stroke-width="2" d="M768.1,-734.804C834.597,-727.807 999.872,-699.868 999.872,-595 999.872,-595 999.872,-595 999.872,-449 999.872,-406.008 1022.06,-360.337 1038.26,-332.738"/>
<polygon fill="grey" stroke="grey" stroke-width="2" points="1041.3,-334.47 1043.48,-324.101 1035.31,-330.849 1041.3,-334.47"/>
</g>
<!-- 28 -->
<g id="node29" class="node"><title>28</title>
<path fill="none" stroke="#5673d8" stroke-width="2" d="M376.872,-324C376.872,-324 346.872,-324 346.872,-324 340.872,-324 334.872,-318 334.872,-312 334.872,-312 334.872,-300 334.872,-300 334.872,-294 340.872,-288 346.872,-288 346.872,-288 376.872,-288 376.872,-288 382.872,-288 388.872,-294 388.872,-300 388.872,-300 388.872,-312 388.872,-312 388.872,-318 382.872,-324 376.872,-324"/>
<text text-anchor="middle" x="361.872" y="-303.5" font-family="sans" font-size="10.00">shovill</text>
</g>
<!-- 27&#45;&gt;28 -->
<g id="edge61" class="edge"><title>27&#45;&gt;28</title>
<path fill="none" stroke="grey" stroke-width="2" d="M713.613,-735.041C646.162,-728.566 476.872,-701.688 476.872,-595 476.872,-595 476.872,-595 476.872,-449 476.872,-397.821 431.201,-354.754 397.422,-329.899"/>
<polygon fill="grey" stroke="grey" stroke-width="2" points="399.298,-326.938 389.125,-323.978 395.232,-332.636 399.298,-326.938"/>
</g>
<!-- 31 -->
<g id="node32" class="node"><title>31</title>
<path fill="none" stroke="#59d856" stroke-width="2" d="M1069.87,-684C1069.87,-684 1039.87,-684 1039.87,-684 1033.87,-684 1027.87,-678 1027.87,-672 1027.87,-672 1027.87,-660 1027.87,-660 1027.87,-654 1033.87,-648 1039.87,-648 1039.87,-648 1069.87,-648 1069.87,-648 1075.87,-648 1081.87,-654 1081.87,-660 1081.87,-660 1081.87,-672 1081.87,-672 1081.87,-678 1075.87,-684 1069.87,-684"/>
<text text-anchor="middle" x="1054.87" y="-663.5" font-family="sans" font-size="10.00">filtlong</text>
</g>
<!-- 27&#45;&gt;31 -->
<g id="edge65" class="edge"><title>27&#45;&gt;31</title>
<path fill="none" stroke="grey" stroke-width="2" d="M768.045,-733.573C817.632,-726.915 925.801,-710.512 1013.87,-684 1015.3,-683.57 1016.75,-683.107 1018.2,-682.62"/>
<polygon fill="grey" stroke="grey" stroke-width="2" points="1019.61,-685.834 1027.8,-679.119 1017.21,-679.257 1019.61,-685.834"/>
</g>
<!-- 28&#45;&gt;2 -->
<g id="edge28" class="edge"><title>28&#45;&gt;2</title>
<path fill="none" stroke="grey" stroke-width="2" d="M381.894,-287.697C391.997,-278.965 404.408,-268.24 415.389,-258.75"/>
<polygon fill="grey" stroke="grey" stroke-width="2" points="417.802,-261.291 423.079,-252.104 413.225,-255.995 417.802,-261.291"/>
</g>
<!-- 28&#45;&gt;3 -->
<g id="edge29" class="edge"><title>28&#45;&gt;3</title>
<path fill="none" stroke="grey" stroke-width="2" d="M334.619,-288.285C319.215,-278.4 299.893,-265.253 283.872,-252 259.562,-231.891 234.365,-206.157 217.013,-187.538"/>
<polygon fill="grey" stroke="grey" stroke-width="2" points="219.438,-185.004 210.083,-180.031 214.295,-189.753 219.438,-185.004"/>
</g>
<!-- 28&#45;&gt;4 -->
<g id="edge30" class="edge"><title>28&#45;&gt;4</title>
<path fill="none" stroke="grey" stroke-width="2" d="M342.623,-287.736C333.247,-278.171 322.751,-265.502 316.872,-252 297.79,-208.182 295.663,-151.659 296.393,-118.563"/>
<polygon fill="grey" stroke="grey" stroke-width="2" points="299.901,-118.399 296.73,-108.29 292.904,-118.169 299.901,-118.399"/>
</g>
<!-- 28&#45;&gt;5 -->
<g id="edge31" class="edge"><title>28&#45;&gt;5</title>
<path fill="none" stroke="grey" stroke-width="2" d="M388.98,-301.207C443.632,-291.922 566.059,-262.451 615.872,-180 624.145,-166.305 623.778,-157.91 615.872,-144 604.62,-124.205 582.729,-111.026 563.474,-102.761"/>
<polygon fill="grey" stroke="grey" stroke-width="2" points="564.59,-99.4381 554.004,-98.9847 561.996,-105.94 564.59,-99.4381"/>
</g>
<!-- 28&#45;&gt;6 -->
<g id="edge32" class="edge"><title>28&#45;&gt;6</title>
<path fill="none" stroke="grey" stroke-width="2" d="M334.521,-295.548C309.429,-286.279 271.738,-270.819 241.872,-252 177.768,-211.608 113.602,-149.269 80.6263,-115.227"/>
<polygon fill="grey" stroke="grey" stroke-width="2" points="83.1452,-112.796 73.6932,-108.01 78.0972,-117.646 83.1452,-112.796"/>
</g>
<!-- 28&#45;&gt;7 -->
<g id="edge33" class="edge"><title>28&#45;&gt;7</title>
<path fill="none" stroke="grey" stroke-width="2" d="M361.872,-287.697C361.872,-279.983 361.872,-270.712 361.872,-262.112"/>
<polygon fill="grey" stroke="grey" stroke-width="2" points="365.372,-262.104 361.872,-252.104 358.372,-262.104 365.372,-262.104"/>
</g>
<!-- 29&#45;&gt;11 -->
<g id="edge39" class="edge"><title>29&#45;&gt;11</title>
<path fill="none" stroke="grey" stroke-width="2" d="M867.481,-575.774C875.244,-566.03 883.817,-553.184 887.872,-540 891.427,-528.438 892.427,-456.898 886.872,-432 884.848,-422.93 881.179,-413.534 877.309,-405.218"/>
<polygon fill="grey" stroke="grey" stroke-width="2" points="880.335,-403.443 872.76,-396.036 874.063,-406.55 880.335,-403.443"/>
</g>
<!-- 30 -->
<g id="node31" class="node"><title>30</title>
<path fill="none" stroke="#80d856" stroke-width="2" d="M866.372,-468C866.372,-468 805.372,-468 805.372,-468 799.372,-468 793.372,-462 793.372,-456 793.372,-456 793.372,-444 793.372,-444 793.372,-438 799.372,-432 805.372,-432 805.372,-432 866.372,-432 866.372,-432 872.372,-432 878.372,-438 878.372,-444 878.372,-444 878.372,-456 878.372,-456 878.372,-462 872.372,-468 866.372,-468"/>
<text text-anchor="middle" x="835.872" y="-447.5" font-family="sans" font-size="10.00">clonalframeml</text>
</g>
<!-- 29&#45;&gt;30 -->
<g id="edge64" class="edge"><title>29&#45;&gt;30</title>
<path fill="none" stroke="grey" stroke-width="2" d="M836.262,-575.774C828.499,-566.03 819.926,-553.184 815.872,-540 809.509,-519.309 815.643,-495.341 822.742,-477.494"/>
<polygon fill="grey" stroke="grey" stroke-width="2" points="825.974,-478.837 826.712,-468.268 819.544,-476.07 825.974,-478.837"/>
</g>
<!-- 35 -->
<g id="node36" class="node"><title>35</title>
<path fill="none" stroke="#5692d8" stroke-width="2" d="M866.872,-540C866.872,-540 836.872,-540 836.872,-540 830.872,-540 824.872,-534 824.872,-528 824.872,-528 824.872,-516 824.872,-516 824.872,-510 830.872,-504 836.872,-504 836.872,-504 866.872,-504 866.872,-504 872.872,-504 878.872,-510 878.872,-516 878.872,-516 878.872,-528 878.872,-528 878.872,-534 872.872,-540 866.872,-540"/>
<text text-anchor="middle" x="851.872" y="-519.5" font-family="sans" font-size="10.00">iqtree</text>
</g>
<!-- 29&#45;&gt;35 -->
<g id="edge68" class="edge"><title>29&#45;&gt;35</title>
<path fill="none" stroke="grey" stroke-width="2" d="M851.872,-575.697C851.872,-567.983 851.872,-558.712 851.872,-550.112"/>
<polygon fill="grey" stroke="grey" stroke-width="2" points="855.372,-550.104 851.872,-540.104 848.372,-550.104 855.372,-550.104"/>
</g>
<!-- 30&#45;&gt;11 -->
<g id="edge38" class="edge"><title>30&#45;&gt;11</title>
<path fill="none" stroke="grey" stroke-width="2" d="M842.546,-431.697C845.586,-423.813 849.254,-414.304 852.632,-405.546"/>
<polygon fill="grey" stroke="grey" stroke-width="2" points="855.941,-406.694 856.274,-396.104 849.41,-404.175 855.941,-406.694"/>
</g>
<!-- 31&#45;&gt;13 -->
<g id="edge41" class="edge"><title>31&#45;&gt;13</title>
<path fill="none" stroke="grey" stroke-width="2" d="M1054.87,-647.951C1054.87,-621.292 1054.87,-568.115 1054.87,-523 1054.87,-523 1054.87,-523 1054.87,-449 1054.87,-408.996 1054.87,-362.653 1054.87,-334.08"/>
<polygon fill="grey" stroke="grey" stroke-width="2" points="1058.37,-334.049 1054.87,-324.049 1051.37,-334.049 1058.37,-334.049"/>
</g>
<!-- 32&#45;&gt;17 -->
<g id="edge46" class="edge"><title>32&#45;&gt;17</title>
<path fill="none" stroke="grey" stroke-width="2" d="M1080.42,-215.697C1078.42,-207.898 1076,-198.509 1073.77,-189.829"/>
<polygon fill="grey" stroke="grey" stroke-width="2" points="1077.15,-188.918 1071.27,-180.104 1070.37,-190.661 1077.15,-188.918"/>
</g>
<!-- 33 -->
<g id="node34" class="node"><title>33</title>
<path fill="none" stroke="#56a2d8" stroke-width="2" d="M1600.87,-396C1600.87,-396 1540.87,-396 1540.87,-396 1534.87,-396 1528.87,-390 1528.87,-384 1528.87,-384 1528.87,-372 1528.87,-372 1528.87,-366 1534.87,-360 1540.87,-360 1540.87,-360 1600.87,-360 1600.87,-360 1606.87,-360 1612.87,-366 1612.87,-372 1612.87,-372 1612.87,-384 1612.87,-384 1612.87,-390 1606.87,-396 1600.87,-396"/>
<text text-anchor="middle" x="1570.87" y="-375.5" font-family="sans" font-size="10.00">fastp_controls</text>
</g>
<!-- 33&#45;&gt;20 -->
<g id="edge50" class="edge"><title>33&#45;&gt;20</title>
<path fill="none" stroke="grey" stroke-width="2" d="M1589.91,-359.697C1599.42,-351.05 1611.08,-340.449 1621.44,-331.027"/>
<polygon fill="grey" stroke="grey" stroke-width="2" points="1624.01,-333.421 1629.06,-324.104 1619.3,-328.241 1624.01,-333.421"/>
</g>
<!-- 33&#45;&gt;24 -->
<g id="edge54" class="edge"><title>33&#45;&gt;24</title>
<path fill="none" stroke="grey" stroke-width="2" d="M1568.76,-359.602C1565.15,-330.07 1557.57,-268.244 1550.87,-216 1549.79,-207.585 1548.59,-198.423 1547.49,-190.119"/>
<polygon fill="grey" stroke="grey" stroke-width="2" points="1550.96,-189.634 1546.17,-180.181 1544.02,-190.555 1550.96,-189.634"/>
</g>
<!-- 34 -->
<g id="node35" class="node"><title>34</title>
<path fill="none" stroke="#56c9d8" stroke-width="2" d="M1480.37,-324C1480.37,-324 1415.37,-324 1415.37,-324 1409.37,-324 1403.37,-318 1403.37,-312 1403.37,-312 1403.37,-300 1403.37,-300 1403.37,-294 1409.37,-288 1415.37,-288 1415.37,-288 1480.37,-288 1480.37,-288 1486.37,-288 1492.37,-294 1492.37,-300 1492.37,-300 1492.37,-312 1492.37,-312 1492.37,-318 1486.37,-324 1480.37,-324"/>
<text text-anchor="middle" x="1447.87" y="-303.5" font-family="sans" font-size="10.00">shovill_controls</text>
</g>
<!-- 33&#45;&gt;34 -->
<g id="edge67" class="edge"><title>33&#45;&gt;34</title>
<path fill="none" stroke="grey" stroke-width="2" d="M1540.78,-359.876C1524.55,-350.639 1504.33,-339.131 1486.9,-329.212"/>
<polygon fill="grey" stroke="grey" stroke-width="2" points="1488.5,-326.094 1478.08,-324.19 1485.04,-332.178 1488.5,-326.094"/>
</g>
<!-- 34&#45;&gt;21 -->
<g id="edge51" class="edge"><title>34&#45;&gt;21</title>
<path fill="none" stroke="grey" stroke-width="2" d="M1460.48,-287.697C1466.47,-279.474 1473.75,-269.483 1480.35,-260.421"/>
<polygon fill="grey" stroke="grey" stroke-width="2" points="1483.35,-262.248 1486.41,-252.104 1477.69,-258.126 1483.35,-262.248"/>
</g>
<!-- 34&#45;&gt;22 -->
<g id="edge52" class="edge"><title>34&#45;&gt;22</title>
<path fill="none" stroke="grey" stroke-width="2" d="M1435.26,-287.697C1429.27,-279.474 1422,-269.483 1415.39,-260.421"/>
<polygon fill="grey" stroke="grey" stroke-width="2" points="1418.05,-258.126 1409.33,-252.104 1412.39,-262.248 1418.05,-258.126"/>
</g>
<!-- 34&#45;&gt;23 -->
<g id="edge53" class="edge"><title>34&#45;&gt;23</title>
<path fill="none" stroke="grey" stroke-width="2" d="M1407.02,-287.876C1384.09,-278.264 1355.29,-266.193 1331,-256.013"/>
<polygon fill="grey" stroke="grey" stroke-width="2" points="1332.17,-252.706 1321.59,-252.068 1329.46,-259.162 1332.17,-252.706"/>
</g>
<!-- 35&#45;&gt;30 -->
<g id="edge63" class="edge"><title>35&#45;&gt;30</title>
<path fill="none" stroke="grey" stroke-width="2" d="M847.916,-503.697C846.153,-495.983 844.034,-486.712 842.069,-478.112"/>
<polygon fill="grey" stroke="grey" stroke-width="2" points="845.421,-477.073 839.781,-468.104 838.597,-478.633 845.421,-477.073"/>
</g>
</g>
</svg>
