<?xml version="1.0" encoding="UTF-8" standalone="no"?>
<!DOCTYPE svg PUBLIC "-//W3C//DTD SVG 1.1//EN"
 "http://www.w3.org/Graphics/SVG/1.1/DTD/svg11.dtd">
<!-- Generated by graphviz version 2.38.0 (20140413.2041)
 -->
<!-- Title: snakemake_dag Pages: 1 -->
<svg width="1686pt" height="692pt"
 viewBox="0.00 0.00 1686.00 692.00" xmlns="http://www.w3.org/2000/svg" xmlns:xlink="http://www.w3.org/1999/xlink">
<g id="graph0" class="graph" transform="scale(1 1) rotate(0) translate(4 688)">
<title>snakemake_dag</title>
<polygon fill="white" stroke="none" points="-4,4 -4,-688 1682,-688 1682,4 -4,4"/>
<!-- 0 -->
<g id="node1" class="node"><title>0</title>
<path fill="none" stroke="#56d8c1" stroke-width="2" d="M742.5,-36C742.5,-36 712.5,-36 712.5,-36 706.5,-36 700.5,-30 700.5,-24 700.5,-24 700.5,-12 700.5,-12 700.5,-6 706.5,-0 712.5,-0 712.5,-0 742.5,-0 742.5,-0 748.5,-0 754.5,-6 754.5,-12 754.5,-12 754.5,-24 754.5,-24 754.5,-30 748.5,-36 742.5,-36"/>
<text text-anchor="middle" x="727.5" y="-15.5" font-family="sans" font-size="10.00">all</text>
</g>
<!-- 1 -->
<g id="node2" class="node"><title>1</title>
<path fill="none" stroke="#56a9d8" stroke-width="2" d="M43,-180C43,-180 12,-180 12,-180 6,-180 0,-174 0,-168 0,-168 0,-156 0,-156 0,-150 6,-144 12,-144 12,-144 43,-144 43,-144 49,-144 55,-150 55,-156 55,-156 55,-168 55,-168 55,-174 49,-180 43,-180"/>
<text text-anchor="middle" x="27.5" y="-159.5" font-family="sans" font-size="10.00">kraken2</text>
</g>
<!-- 1&#45;&gt;0 -->
<g id="edge22" class="edge"><title>1&#45;&gt;0</title>
<path fill="none" stroke="grey" stroke-width="2" d="M20.2691,-143.79C13.1612,-123.813 5.72411,-91.1644 23.5,-72 69.0936,-22.845 551.015,-18.9983 690.112,-18.9183"/>
<polygon fill="grey" stroke="grey" stroke-width="2" points="690.271,-22.4182 700.271,-18.919 690.271,-15.4182 690.271,-22.4182"/>
</g>
<!-- 9 -->
<g id="node10" class="node"><title>9</title>
<path fill="none" stroke="#afd856" stroke-width="2" d="M294.5,-108C294.5,-108 256.5,-108 256.5,-108 250.5,-108 244.5,-102 244.5,-96 244.5,-96 244.5,-84 244.5,-84 244.5,-78 250.5,-72 256.5,-72 256.5,-72 294.5,-72 294.5,-72 300.5,-72 306.5,-78 306.5,-84 306.5,-84 306.5,-96 306.5,-96 306.5,-102 300.5,-108 294.5,-108"/>
<text text-anchor="middle" x="275.5" y="-87.5" font-family="sans" font-size="10.00">summary</text>
</g>
<!-- 1&#45;&gt;9 -->
<g id="edge38" class="edge"><title>1&#45;&gt;9</title>
<path fill="none" stroke="grey" stroke-width="2" d="M55.1531,-147.629C58.2729,-146.32 61.4326,-145.08 64.5,-144 122.221,-123.686 191.391,-107.857 234.401,-98.9718"/>
<polygon fill="grey" stroke="grey" stroke-width="2" points="235.122,-102.397 244.222,-96.9701 233.724,-95.538 235.122,-102.397"/>
</g>
<!-- 2 -->
<g id="node3" class="node"><title>2</title>
<path fill="none" stroke="#d89c56" stroke-width="2" d="M447.5,-180C447.5,-180 417.5,-180 417.5,-180 411.5,-180 405.5,-174 405.5,-168 405.5,-168 405.5,-156 405.5,-156 405.5,-150 411.5,-144 417.5,-144 417.5,-144 447.5,-144 447.5,-144 453.5,-144 459.5,-150 459.5,-156 459.5,-156 459.5,-168 459.5,-168 459.5,-174 453.5,-180 447.5,-180"/>
<text text-anchor="middle" x="432.5" y="-159.5" font-family="sans" font-size="10.00">quast</text>
</g>
<!-- 2&#45;&gt;0 -->
<g id="edge5" class="edge"><title>2&#45;&gt;0</title>
<path fill="none" stroke="grey" stroke-width="2" d="M425.767,-143.738C419.324,-124.016 412.82,-91.9089 429.5,-72 462.389,-32.7452 617.948,-22.542 690.313,-19.9077"/>
<polygon fill="grey" stroke="grey" stroke-width="2" points="690.484,-23.404 700.361,-19.5714 690.25,-16.408 690.484,-23.404"/>
</g>
<!-- 8 -->
<g id="node9" class="node"><title>8</title>
<path fill="none" stroke="#d87556" stroke-width="2" d="M480.5,-108C480.5,-108 450.5,-108 450.5,-108 444.5,-108 438.5,-102 438.5,-96 438.5,-96 438.5,-84 438.5,-84 438.5,-78 444.5,-72 450.5,-72 450.5,-72 480.5,-72 480.5,-72 486.5,-72 492.5,-78 492.5,-84 492.5,-84 492.5,-96 492.5,-96 492.5,-102 486.5,-108 480.5,-108"/>
<text text-anchor="middle" x="465.5" y="-87.5" font-family="sans" font-size="10.00">multiqc</text>
</g>
<!-- 2&#45;&gt;8 -->
<g id="edge36" class="edge"><title>2&#45;&gt;8</title>
<path fill="none" stroke="grey" stroke-width="2" d="M440.657,-143.697C444.414,-135.728 448.953,-126.1 453.118,-117.264"/>
<polygon fill="grey" stroke="grey" stroke-width="2" points="456.338,-118.642 457.437,-108.104 450.006,-115.657 456.338,-118.642"/>
</g>
<!-- 2&#45;&gt;9 -->
<g id="edge42" class="edge"><title>2&#45;&gt;9</title>
<path fill="none" stroke="grey" stroke-width="2" d="M405.153,-148.807C380.447,-137.792 343.768,-121.438 315.722,-108.933"/>
<polygon fill="grey" stroke="grey" stroke-width="2" points="317.13,-105.729 306.571,-104.853 314.279,-112.122 317.13,-105.729"/>
</g>
<!-- 3 -->
<g id="node4" class="node"><title>3</title>
<path fill="none" stroke="#bed856" stroke-width="2" d="M117.5,-180C117.5,-180 85.5,-180 85.5,-180 79.5,-180 73.5,-174 73.5,-168 73.5,-168 73.5,-156 73.5,-156 73.5,-150 79.5,-144 85.5,-144 85.5,-144 117.5,-144 117.5,-144 123.5,-144 129.5,-150 129.5,-156 129.5,-156 129.5,-168 129.5,-168 129.5,-174 123.5,-180 117.5,-180"/>
<text text-anchor="middle" x="101.5" y="-159.5" font-family="sans" font-size="10.00">abricate</text>
</g>
<!-- 3&#45;&gt;0 -->
<g id="edge9" class="edge"><title>3&#45;&gt;0</title>
<path fill="none" stroke="grey" stroke-width="2" d="M73.457,-147.201C58.6436,-138.258 41.843,-125.08 33.5,-108 26.4777,-93.6234 22.6256,-83.7366 33.5,-72 78.3734,-23.569 552.458,-19.2027 690.182,-18.9616"/>
<polygon fill="grey" stroke="grey" stroke-width="2" points="690.252,-22.4616 700.248,-18.9504 690.244,-15.4616 690.252,-22.4616"/>
</g>
<!-- 3&#45;&gt;9 -->
<g id="edge40" class="edge"><title>3&#45;&gt;9</title>
<path fill="none" stroke="grey" stroke-width="2" d="M129.843,-149.597C158.294,-138.152 202.409,-120.405 234.637,-107.439"/>
<polygon fill="grey" stroke="grey" stroke-width="2" points="236.256,-110.56 244.227,-103.581 233.644,-104.066 236.256,-110.56"/>
</g>
<!-- 10 -->
<g id="node11" class="node"><title>10</title>
<path fill="none" stroke="#56d88a" stroke-width="2" d="M138,-108C138,-108 55,-108 55,-108 49,-108 43,-102 43,-96 43,-96 43,-84 43,-84 43,-78 49,-72 55,-72 55,-72 138,-72 138,-72 144,-72 150,-78 150,-84 150,-84 150,-96 150,-96 150,-102 144,-108 138,-108"/>
<text text-anchor="middle" x="96.5" y="-87.5" font-family="sans" font-size="10.00">abricate_summary</text>
</g>
<!-- 3&#45;&gt;10 -->
<g id="edge43" class="edge"><title>3&#45;&gt;10</title>
<path fill="none" stroke="grey" stroke-width="2" d="M100.264,-143.697C99.7131,-135.983 99.0509,-126.712 98.4366,-118.112"/>
<polygon fill="grey" stroke="grey" stroke-width="2" points="101.925,-117.83 97.7217,-108.104 94.9432,-118.328 101.925,-117.83"/>
</g>
<!-- 4 -->
<g id="node5" class="node"><title>4</title>
<path fill="none" stroke="#56d8d8" stroke-width="2" d="M211,-252C211,-252 172,-252 172,-252 166,-252 160,-246 160,-240 160,-240 160,-228 160,-228 160,-222 166,-216 172,-216 172,-216 211,-216 211,-216 217,-216 223,-222 223,-228 223,-228 223,-240 223,-240 223,-246 217,-252 211,-252"/>
<text text-anchor="middle" x="191.5" y="-231.5" font-family="sans" font-size="10.00">amrfinder</text>
</g>
<!-- 4&#45;&gt;0 -->
<g id="edge19" class="edge"><title>4&#45;&gt;0</title>
<path fill="none" stroke="grey" stroke-width="2" d="M185.262,-215.593C181.933,-205.374 178.183,-192.124 176.5,-180 169.545,-129.884 170.88,-100.771 212.5,-72 289.878,-18.5101 585.005,-17.0584 690.08,-18.3081"/>
<polygon fill="grey" stroke="grey" stroke-width="2" points="690.171,-21.8095 700.217,-18.4444 690.265,-14.8102 690.171,-21.8095"/>
</g>
<!-- 5 -->
<g id="node6" class="node"><title>5</title>
<path fill="none" stroke="#d88d56" stroke-width="2" d="M227.5,-180C227.5,-180 197.5,-180 197.5,-180 191.5,-180 185.5,-174 185.5,-168 185.5,-168 185.5,-156 185.5,-156 185.5,-150 191.5,-144 197.5,-144 197.5,-144 227.5,-144 227.5,-144 233.5,-144 239.5,-150 239.5,-156 239.5,-156 239.5,-168 239.5,-168 239.5,-174 233.5,-180 227.5,-180"/>
<text text-anchor="middle" x="212.5" y="-159.5" font-family="sans" font-size="10.00">mlst</text>
</g>
<!-- 5&#45;&gt;0 -->
<g id="edge4" class="edge"><title>5&#45;&gt;0</title>
<path fill="none" stroke="grey" stroke-width="2" d="M211.594,-143.981C211.525,-123.559 214.851,-89.8424 235.5,-72 269.747,-42.4083 580.999,-25.6212 690.002,-20.6097"/>
<polygon fill="grey" stroke="grey" stroke-width="2" points="690.37,-24.0967 700.201,-20.1482 690.053,-17.1039 690.37,-24.0967"/>
</g>
<!-- 5&#45;&gt;9 -->
<g id="edge41" class="edge"><title>5&#45;&gt;9</title>
<path fill="none" stroke="grey" stroke-width="2" d="M228.073,-143.697C235.702,-135.22 245.023,-124.864 253.376,-115.583"/>
<polygon fill="grey" stroke="grey" stroke-width="2" points="256.018,-117.879 260.106,-108.104 250.815,-113.196 256.018,-117.879"/>
</g>
<!-- 6 -->
<g id="node7" class="node"><title>6</title>
<path fill="none" stroke="#56d87b" stroke-width="2" d="M337.5,-180C337.5,-180 307.5,-180 307.5,-180 301.5,-180 295.5,-174 295.5,-168 295.5,-168 295.5,-156 295.5,-156 295.5,-150 301.5,-144 307.5,-144 307.5,-144 337.5,-144 337.5,-144 343.5,-144 349.5,-150 349.5,-156 349.5,-156 349.5,-168 349.5,-168 349.5,-174 343.5,-180 337.5,-180"/>
<text text-anchor="middle" x="322.5" y="-159.5" font-family="sans" font-size="10.00">prokka</text>
</g>
<!-- 6&#45;&gt;0 -->
<g id="edge14" class="edge"><title>6&#45;&gt;0</title>
<path fill="none" stroke="grey" stroke-width="2" d="M324.35,-143.894C327.538,-123.382 336.064,-89.5768 358.5,-72 409.618,-31.9543 607.323,-22.1239 690.4,-19.7452"/>
<polygon fill="grey" stroke="grey" stroke-width="2" points="690.507,-23.2437 700.41,-19.4791 690.321,-16.2462 690.507,-23.2437"/>
</g>
<!-- 6&#45;&gt;9 -->
<g id="edge39" class="edge"><title>6&#45;&gt;9</title>
<path fill="none" stroke="grey" stroke-width="2" d="M310.882,-143.697C305.361,-135.474 298.653,-125.483 292.568,-116.421"/>
<polygon fill="grey" stroke="grey" stroke-width="2" points="295.465,-114.456 286.984,-108.104 289.653,-118.358 295.465,-114.456"/>
</g>
<!-- 7 -->
<g id="node8" class="node"><title>7</title>
<path fill="none" stroke="#d86656" stroke-width="2" d="M392,-252C392,-252 345,-252 345,-252 339,-252 333,-246 333,-240 333,-240 333,-228 333,-228 333,-222 339,-216 345,-216 345,-216 392,-216 392,-216 398,-216 404,-222 404,-228 404,-228 404,-240 404,-240 404,-246 398,-252 392,-252"/>
<text text-anchor="middle" x="368.5" y="-231.5" font-family="sans" font-size="10.00">ezclermont</text>
</g>
<!-- 7&#45;&gt;0 -->
<g id="edge2" class="edge"><title>7&#45;&gt;0</title>
<path fill="none" stroke="grey" stroke-width="2" d="M368.011,-215.854C368.074,-182.655 373.312,-109.566 415.5,-72 455.587,-36.3044 616.235,-24.223 690.056,-20.5032"/>
<polygon fill="grey" stroke="grey" stroke-width="2" points="690.472,-23.9874 700.293,-20.0132 690.137,-16.9954 690.472,-23.9874"/>
</g>
<!-- 7&#45;&gt;9 -->
<g id="edge37" class="edge"><title>7&#45;&gt;9</title>
<path fill="none" stroke="grey" stroke-width="2" d="M332.809,-218.611C315.997,-209.957 297.305,-197.234 286.5,-180 275.024,-161.695 272.757,-137.085 273.088,-118.383"/>
<polygon fill="grey" stroke="grey" stroke-width="2" points="276.595,-118.289 273.533,-108.147 269.602,-117.985 276.595,-118.289"/>
</g>
<!-- 20 -->
<g id="node21" class="node"><title>20</title>
<path fill="none" stroke="#ced856" stroke-width="2" d="M625.5,-180C625.5,-180 527.5,-180 527.5,-180 521.5,-180 515.5,-174 515.5,-168 515.5,-168 515.5,-156 515.5,-156 515.5,-150 521.5,-144 527.5,-144 527.5,-144 625.5,-144 625.5,-144 631.5,-144 637.5,-150 637.5,-156 637.5,-156 637.5,-168 637.5,-168 637.5,-174 631.5,-180 625.5,-180"/>
<text text-anchor="middle" x="576.5" y="-159.5" font-family="sans" font-size="10.00">ezclermont_summary</text>
</g>
<!-- 7&#45;&gt;20 -->
<g id="edge56" class="edge"><title>7&#45;&gt;20</title>
<path fill="none" stroke="grey" stroke-width="2" d="M404.256,-220.967C434.964,-210.632 479.884,-195.515 516.152,-183.31"/>
<polygon fill="grey" stroke="grey" stroke-width="2" points="517.289,-186.62 525.651,-180.113 515.057,-179.985 517.289,-186.62"/>
</g>
<!-- 8&#45;&gt;0 -->
<g id="edge3" class="edge"><title>8&#45;&gt;0</title>
<path fill="none" stroke="grey" stroke-width="2" d="M492.622,-77.0523C497.209,-75.2351 501.956,-73.4766 506.5,-72 569.899,-51.3965 645.876,-34.9033 690.213,-26.0694"/>
<polygon fill="grey" stroke="grey" stroke-width="2" points="691.108,-29.4604 700.244,-24.0943 689.756,-22.5923 691.108,-29.4604"/>
</g>
<!-- 9&#45;&gt;0 -->
<g id="edge10" class="edge"><title>9&#45;&gt;0</title>
<path fill="none" stroke="grey" stroke-width="2" d="M306.675,-76.1645C311.258,-74.5884 315.963,-73.136 320.5,-72 453.967,-38.5809 617.638,-25.4232 690.022,-20.9744"/>
<polygon fill="grey" stroke="grey" stroke-width="2" points="690.657,-24.443 700.432,-20.3566 690.242,-17.4553 690.657,-24.443"/>
</g>
<!-- 10&#45;&gt;0 -->
<g id="edge15" class="edge"><title>10&#45;&gt;0</title>
<path fill="none" stroke="grey" stroke-width="2" d="M150.163,-74.7883C154.991,-73.7511 159.822,-72.8002 164.5,-72 360.907,-38.4025 599.768,-24.7646 690.309,-20.5558"/>
<polygon fill="grey" stroke="grey" stroke-width="2" points="690.524,-24.0497 700.355,-20.0995 690.206,-17.0569 690.524,-24.0497"/>
</g>
<!-- 11 -->
<g id="node12" class="node"><title>11</title>
<path fill="none" stroke="#569ad8" stroke-width="2" d="M893.5,-612C893.5,-612 863.5,-612 863.5,-612 857.5,-612 851.5,-606 851.5,-600 851.5,-600 851.5,-588 851.5,-588 851.5,-582 857.5,-576 863.5,-576 863.5,-576 893.5,-576 893.5,-576 899.5,-576 905.5,-582 905.5,-588 905.5,-588 905.5,-600 905.5,-600 905.5,-606 899.5,-612 893.5,-612"/>
<text text-anchor="middle" x="878.5" y="-591.5" font-family="sans" font-size="10.00">snippy</text>
</g>
<!-- 11&#45;&gt;0 -->
<g id="edge23" class="edge"><title>11&#45;&gt;0</title>
<path fill="none" stroke="grey" stroke-width="2" d="M905.53,-578.386C942.553,-556.171 1004.5,-510.161 1004.5,-451 1004.5,-451 1004.5,-451 1004.5,-161 1004.5,-118.496 1001.85,-99.5721 969.5,-72 939.007,-46.0094 824.718,-29.7773 764.755,-22.8661"/>
<polygon fill="grey" stroke="grey" stroke-width="2" points="764.9,-19.3604 754.572,-21.7219 764.119,-26.3166 764.9,-19.3604"/>
</g>
<!-- 30 -->
<g id="node31" class="node"><title>30</title>
<path fill="none" stroke="#68d856" stroke-width="2" d="M900.5,-540C900.5,-540 856.5,-540 856.5,-540 850.5,-540 844.5,-534 844.5,-528 844.5,-528 844.5,-516 844.5,-516 844.5,-510 850.5,-504 856.5,-504 856.5,-504 900.5,-504 900.5,-504 906.5,-504 912.5,-510 912.5,-516 912.5,-516 912.5,-528 912.5,-528 912.5,-534 906.5,-540 900.5,-540"/>
<text text-anchor="middle" x="878.5" y="-519.5" font-family="sans" font-size="10.00">snippycore</text>
</g>
<!-- 11&#45;&gt;30 -->
<g id="edge68" class="edge"><title>11&#45;&gt;30</title>
<path fill="none" stroke="grey" stroke-width="2" d="M878.5,-575.697C878.5,-567.983 878.5,-558.712 878.5,-550.112"/>
<polygon fill="grey" stroke="grey" stroke-width="2" points="882,-550.104 878.5,-540.104 875,-550.104 882,-550.104"/>
</g>
<!-- 12 -->
<g id="node13" class="node"><title>12</title>
<path fill="none" stroke="#5692d8" stroke-width="2" d="M887.5,-324C887.5,-324 857.5,-324 857.5,-324 851.5,-324 845.5,-318 845.5,-312 845.5,-312 845.5,-300 845.5,-300 845.5,-294 851.5,-288 857.5,-288 857.5,-288 887.5,-288 887.5,-288 893.5,-288 899.5,-294 899.5,-300 899.5,-300 899.5,-312 899.5,-312 899.5,-318 893.5,-324 887.5,-324"/>
<text text-anchor="middle" x="872.5" y="-303.5" font-family="sans" font-size="10.00">maskrc</text>
</g>
<!-- 12&#45;&gt;0 -->
<g id="edge24" class="edge"><title>12&#45;&gt;0</title>
<path fill="none" stroke="grey" stroke-width="2" d="M887.677,-287.889C922.443,-246.57 1000.88,-139.767 947.5,-72 925.129,-43.5996 821.216,-28.6415 764.569,-22.4765"/>
<polygon fill="grey" stroke="grey" stroke-width="2" points="764.883,-18.9903 754.572,-21.4265 764.152,-25.952 764.883,-18.9903"/>
</g>
<!-- 15 -->
<g id="node16" class="node"><title>15</title>
<path fill="none" stroke="#56d86b" stroke-width="2" d="M861,-252C861,-252 784,-252 784,-252 778,-252 772,-246 772,-240 772,-240 772,-228 772,-228 772,-222 778,-216 784,-216 784,-216 861,-216 861,-216 867,-216 873,-222 873,-228 873,-228 873,-240 873,-240 873,-246 867,-252 861,-252"/>
<text text-anchor="middle" x="822.5" y="-231.5" font-family="sans" font-size="10.00">snp_comparisons</text>
</g>
<!-- 12&#45;&gt;15 -->
<g id="edge49" class="edge"><title>12&#45;&gt;15</title>
<path fill="none" stroke="grey" stroke-width="2" d="M860.14,-287.697C854.267,-279.474 847.131,-269.483 840.658,-260.421"/>
<polygon fill="grey" stroke="grey" stroke-width="2" points="843.378,-258.207 834.717,-252.104 837.682,-262.276 843.378,-258.207"/>
</g>
<!-- 13 -->
<g id="node14" class="node"><title>13</title>
<path fill="none" stroke="#78d856" stroke-width="2" d="M628.5,-108C628.5,-108 598.5,-108 598.5,-108 592.5,-108 586.5,-102 586.5,-96 586.5,-96 586.5,-84 586.5,-84 586.5,-78 592.5,-72 598.5,-72 598.5,-72 628.5,-72 628.5,-72 634.5,-72 640.5,-78 640.5,-84 640.5,-84 640.5,-96 640.5,-96 640.5,-102 634.5,-108 628.5,-108"/>
<text text-anchor="middle" x="613.5" y="-87.5" font-family="sans" font-size="10.00">fastqc</text>
</g>
<!-- 13&#45;&gt;0 -->
<g id="edge11" class="edge"><title>13&#45;&gt;0</title>
<path fill="none" stroke="grey" stroke-width="2" d="M640.516,-72.411C655.738,-63.0642 674.949,-51.2684 691.442,-41.1411"/>
<polygon fill="grey" stroke="grey" stroke-width="2" points="693.592,-43.9278 700.282,-35.7125 689.929,-37.9626 693.592,-43.9278"/>
</g>
<!-- 14 -->
<g id="node15" class="node"><title>14</title>
<path fill="none" stroke="#56d85b" stroke-width="2" d="M1107,-324C1107,-324 1072,-324 1072,-324 1066,-324 1060,-318 1060,-312 1060,-312 1060,-300 1060,-300 1060,-294 1066,-288 1072,-288 1072,-288 1107,-288 1107,-288 1113,-288 1119,-294 1119,-300 1119,-300 1119,-312 1119,-312 1119,-318 1113,-324 1107,-324"/>
<text text-anchor="middle" x="1089.5" y="-303.5" font-family="sans" font-size="10.00">unicycler</text>
</g>
<!-- 14&#45;&gt;0 -->
<g id="edge12" class="edge"><title>14&#45;&gt;0</title>
<path fill="none" stroke="grey" stroke-width="2" d="M1119.39,-293.327C1137.6,-284.659 1159.74,-271.03 1172.5,-252 1217.51,-184.861 1252.37,-132.267 1198.5,-72 1169.71,-39.7843 871.108,-24.7549 764.813,-20.3965"/>
<polygon fill="grey" stroke="grey" stroke-width="2" points="764.693,-16.889 754.561,-19.985 764.412,-23.8833 764.693,-16.889"/>
</g>
<!-- 18 -->
<g id="node19" class="node"><title>18</title>
<path fill="none" stroke="#56d8a2" stroke-width="2" d="M1149.5,-180C1149.5,-180 1071.5,-180 1071.5,-180 1065.5,-180 1059.5,-174 1059.5,-168 1059.5,-168 1059.5,-156 1059.5,-156 1059.5,-150 1065.5,-144 1071.5,-144 1071.5,-144 1149.5,-144 1149.5,-144 1155.5,-144 1161.5,-150 1161.5,-156 1161.5,-156 1161.5,-168 1161.5,-168 1161.5,-174 1155.5,-180 1149.5,-180"/>
<text text-anchor="middle" x="1110.5" y="-159.5" font-family="sans" font-size="10.00">get_ESBL_contigs</text>
</g>
<!-- 14&#45;&gt;18 -->
<g id="edge53" class="edge"><title>14&#45;&gt;18</title>
<path fill="none" stroke="grey" stroke-width="2" d="M1119.13,-289.482C1132.9,-280.541 1147.88,-267.901 1155.5,-252 1162.42,-237.573 1161.02,-231.019 1155.5,-216 1151.72,-205.696 1144.94,-196.025 1137.78,-187.837"/>
<polygon fill="grey" stroke="grey" stroke-width="2" points="1140.27,-185.375 1130.88,-180.469 1135.16,-190.16 1140.27,-185.375"/>
</g>
<!-- 33 -->
<g id="node34" class="node"><title>33</title>
<path fill="none" stroke="#a7d856" stroke-width="2" d="M1134.5,-252C1134.5,-252 1044.5,-252 1044.5,-252 1038.5,-252 1032.5,-246 1032.5,-240 1032.5,-240 1032.5,-228 1032.5,-228 1032.5,-222 1038.5,-216 1044.5,-216 1044.5,-216 1134.5,-216 1134.5,-216 1140.5,-216 1146.5,-222 1146.5,-228 1146.5,-228 1146.5,-240 1146.5,-240 1146.5,-246 1140.5,-252 1134.5,-252"/>
<text text-anchor="middle" x="1089.5" y="-231.5" font-family="sans" font-size="10.00">amrfinder_nanopore</text>
</g>
<!-- 14&#45;&gt;33 -->
<g id="edge72" class="edge"><title>14&#45;&gt;33</title>
<path fill="none" stroke="grey" stroke-width="2" d="M1089.5,-287.697C1089.5,-279.983 1089.5,-270.712 1089.5,-262.112"/>
<polygon fill="grey" stroke="grey" stroke-width="2" points="1093,-262.104 1089.5,-252.104 1086,-262.104 1093,-262.104"/>
</g>
<!-- 15&#45;&gt;0 -->
<g id="edge13" class="edge"><title>15&#45;&gt;0</title>
<path fill="none" stroke="grey" stroke-width="2" d="M788.816,-215.955C721.838,-182.043 578.265,-109.249 577.5,-108 569.144,-94.3555 568.261,-85.063 577.5,-72 602.902,-36.0836 654.761,-24.3434 690.321,-20.599"/>
<polygon fill="grey" stroke="grey" stroke-width="2" points="690.684,-24.0807 700.334,-19.7083 690.064,-17.1082 690.684,-24.0807"/>
</g>
<!-- 16 -->
<g id="node17" class="node"><title>16</title>
<path fill="none" stroke="#56c9d8" stroke-width="2" d="M872.5,-180C872.5,-180 772.5,-180 772.5,-180 766.5,-180 760.5,-174 760.5,-168 760.5,-168 760.5,-156 760.5,-156 760.5,-150 766.5,-144 772.5,-144 772.5,-144 872.5,-144 872.5,-144 878.5,-144 884.5,-150 884.5,-156 884.5,-156 884.5,-168 884.5,-168 884.5,-174 878.5,-180 872.5,-180"/>
<text text-anchor="middle" x="822.5" y="-159.5" font-family="sans" font-size="10.00">plot_snp_comparisons</text>
</g>
<!-- 15&#45;&gt;16 -->
<g id="edge50" class="edge"><title>15&#45;&gt;16</title>
<path fill="none" stroke="grey" stroke-width="2" d="M822.5,-215.697C822.5,-207.983 822.5,-198.712 822.5,-190.112"/>
<polygon fill="grey" stroke="grey" stroke-width="2" points="826,-190.104 822.5,-180.104 819,-190.104 826,-190.104"/>
</g>
<!-- 17 -->
<g id="node18" class="node"><title>17</title>
<path fill="none" stroke="#d8ac56" stroke-width="2" d="M926.5,-108C926.5,-108 864.5,-108 864.5,-108 858.5,-108 852.5,-102 852.5,-96 852.5,-96 852.5,-84 852.5,-84 852.5,-78 858.5,-72 864.5,-72 864.5,-72 926.5,-72 926.5,-72 932.5,-72 938.5,-78 938.5,-84 938.5,-84 938.5,-96 938.5,-96 938.5,-102 932.5,-108 926.5,-108"/>
<text text-anchor="middle" x="895.5" y="-87.5" font-family="sans" font-size="10.00">print_travelers</text>
</g>
<!-- 15&#45;&gt;17 -->
<g id="edge51" class="edge"><title>15&#45;&gt;17</title>
<path fill="none" stroke="grey" stroke-width="2" d="M857.501,-215.858C871.289,-207.156 885.676,-195.176 893.5,-180 903.268,-161.052 903.091,-136.686 900.85,-118.241"/>
<polygon fill="grey" stroke="grey" stroke-width="2" points="904.282,-117.528 899.351,-108.15 897.358,-118.556 904.282,-117.528"/>
</g>
<!-- 27 -->
<g id="node28" class="node"><title>27</title>
<path fill="none" stroke="#d8d356" stroke-width="2" d="M784,-108C784,-108 671,-108 671,-108 665,-108 659,-102 659,-96 659,-96 659,-84 659,-84 659,-78 665,-72 671,-72 671,-72 784,-72 784,-72 790,-72 796,-78 796,-84 796,-84 796,-96 796,-96 796,-102 790,-108 784,-108"/>
<text text-anchor="middle" x="727.5" y="-87.5" font-family="sans" font-size="10.00">comparison_phylogroups</text>
</g>
<!-- 15&#45;&gt;27 -->
<g id="edge64" class="edge"><title>15&#45;&gt;27</title>
<path fill="none" stroke="grey" stroke-width="2" d="M790.653,-215.796C776.773,-206.816 761.437,-194.635 751.5,-180 738.967,-161.542 732.967,-136.793 730.101,-118.079"/>
<polygon fill="grey" stroke="grey" stroke-width="2" points="733.564,-117.57 728.78,-108.116 726.625,-118.49 733.564,-117.57"/>
</g>
<!-- 16&#45;&gt;0 -->
<g id="edge20" class="edge"><title>16&#45;&gt;0</title>
<path fill="none" stroke="grey" stroke-width="2" d="M822.738,-143.83C822.21,-124.775 818.923,-93.835 804.5,-72 794.5,-56.8614 778.549,-44.8373 763.753,-36.0945"/>
<polygon fill="grey" stroke="grey" stroke-width="2" points="765.191,-32.8891 754.752,-31.0765 761.782,-39.0031 765.191,-32.8891"/>
</g>
<!-- 16&#45;&gt;17 -->
<g id="edge52" class="edge"><title>16&#45;&gt;17</title>
<path fill="none" stroke="grey" stroke-width="2" d="M840.545,-143.697C849.562,-135.05 860.618,-124.449 870.443,-115.027"/>
<polygon fill="grey" stroke="grey" stroke-width="2" points="872.867,-117.552 877.663,-108.104 868.022,-112.499 872.867,-117.552"/>
</g>
<!-- 17&#45;&gt;0 -->
<g id="edge6" class="edge"><title>17&#45;&gt;0</title>
<path fill="none" stroke="grey" stroke-width="2" d="M854.403,-71.8761C826.717,-60.3406 790.533,-45.2638 763.89,-34.1623"/>
<polygon fill="grey" stroke="grey" stroke-width="2" points="765.116,-30.8816 754.539,-30.2661 762.423,-37.3431 765.116,-30.8816"/>
</g>
<!-- 18&#45;&gt;0 -->
<g id="edge16" class="edge"><title>18&#45;&gt;0</title>
<path fill="none" stroke="grey" stroke-width="2" d="M1094.98,-143.765C1073.7,-120.534 1036.09,-81.0365 1018.5,-72 935.075,-29.1508 822.577,-20.4651 764.947,-19.0061"/>
<polygon fill="grey" stroke="grey" stroke-width="2" points="764.91,-15.5048 754.845,-18.8111 764.775,-22.5035 764.91,-15.5048"/>
</g>
<!-- 19 -->
<g id="node20" class="node"><title>19</title>
<path fill="none" stroke="#56d8d0" stroke-width="2" d="M1178,-108C1178,-108 1083,-108 1083,-108 1077,-108 1071,-102 1071,-96 1071,-96 1071,-84 1071,-84 1071,-78 1077,-72 1083,-72 1083,-72 1178,-72 1178,-72 1184,-72 1190,-78 1190,-84 1190,-84 1190,-96 1190,-96 1190,-102 1184,-108 1178,-108"/>
<text text-anchor="middle" x="1130.5" y="-87.5" font-family="sans" font-size="10.00">prokka_ESBL_contigs</text>
</g>
<!-- 18&#45;&gt;19 -->
<g id="edge55" class="edge"><title>18&#45;&gt;19</title>
<path fill="none" stroke="grey" stroke-width="2" d="M1115.44,-143.697C1117.67,-135.898 1120.35,-126.509 1122.83,-117.829"/>
<polygon fill="grey" stroke="grey" stroke-width="2" points="1126.23,-118.681 1125.61,-108.104 1119.5,-116.758 1126.23,-118.681"/>
</g>
<!-- 19&#45;&gt;0 -->
<g id="edge18" class="edge"><title>19&#45;&gt;0</title>
<path fill="none" stroke="grey" stroke-width="2" d="M1070.8,-74.9282C1065.97,-73.8987 1061.16,-72.9091 1056.5,-72 951.292,-51.4644 826.036,-32.8918 764.863,-24.1977"/>
<polygon fill="grey" stroke="grey" stroke-width="2" points="765.297,-20.7243 754.905,-22.7895 764.317,-27.6554 765.297,-20.7243"/>
</g>
<!-- 20&#45;&gt;0 -->
<g id="edge8" class="edge"><title>20&#45;&gt;0</title>
<path fill="none" stroke="grey" stroke-width="2" d="M561.344,-143.814C546.442,-124.743 528.125,-93.79 544.5,-72 561.994,-48.7201 641.998,-32.391 690.245,-24.4645"/>
<polygon fill="grey" stroke="grey" stroke-width="2" points="690.993,-27.8895 700.315,-22.8559 689.888,-20.9772 690.993,-27.8895"/>
</g>
<!-- 20&#45;&gt;27 -->
<g id="edge66" class="edge"><title>20&#45;&gt;27</title>
<path fill="none" stroke="grey" stroke-width="2" d="M613.439,-143.876C633.99,-134.349 659.751,-122.407 681.589,-112.283"/>
<polygon fill="grey" stroke="grey" stroke-width="2" points="683.081,-115.45 690.681,-108.068 680.137,-109.099 683.081,-115.45"/>
</g>
<!-- 21 -->
<g id="node22" class="node"><title>21</title>
<path fill="none" stroke="#56d8b1" stroke-width="2" d="M1351.5,-324C1351.5,-324 1277.5,-324 1277.5,-324 1271.5,-324 1265.5,-318 1265.5,-312 1265.5,-312 1265.5,-300 1265.5,-300 1265.5,-294 1271.5,-288 1277.5,-288 1277.5,-288 1351.5,-288 1351.5,-288 1357.5,-288 1363.5,-294 1363.5,-300 1363.5,-300 1363.5,-312 1363.5,-312 1363.5,-318 1357.5,-324 1351.5,-324"/>
<text text-anchor="middle" x="1314.5" y="-303.5" font-family="sans" font-size="10.00">kraken2_controls</text>
</g>
<!-- 21&#45;&gt;0 -->
<g id="edge17" class="edge"><title>21&#45;&gt;0</title>
<path fill="none" stroke="grey" stroke-width="2" d="M1309.05,-287.956C1292.49,-236.597 1242.74,-85.986 1224.5,-72 1188.18,-44.1488 874.176,-26.2069 764.844,-20.7571"/>
<polygon fill="grey" stroke="grey" stroke-width="2" points="764.781,-17.2499 754.621,-20.2544 764.437,-24.2414 764.781,-17.2499"/>
</g>
<!-- 22 -->
<g id="node23" class="node"><title>22</title>
<path fill="none" stroke="#d85656" stroke-width="2" d="M1617,-252C1617,-252 1554,-252 1554,-252 1548,-252 1542,-246 1542,-240 1542,-240 1542,-228 1542,-228 1542,-222 1548,-216 1554,-216 1554,-216 1617,-216 1617,-216 1623,-216 1629,-222 1629,-228 1629,-228 1629,-240 1629,-240 1629,-246 1623,-252 1617,-252"/>
<text text-anchor="middle" x="1585.5" y="-231.5" font-family="sans" font-size="10.00">quast_controls</text>
</g>
<!-- 22&#45;&gt;0 -->
<g id="edge1" class="edge"><title>22&#45;&gt;0</title>
<path fill="none" stroke="grey" stroke-width="2" d="M1575.29,-215.95C1553.61,-181.553 1499.31,-104.379 1430.5,-72 1370.12,-43.5865 902.393,-25.1191 765.204,-20.2731"/>
<polygon fill="grey" stroke="grey" stroke-width="2" points="764.916,-16.761 754.8,-19.9094 764.672,-23.7567 764.916,-16.761"/>
</g>
<!-- 25 -->
<g id="node26" class="node"><title>25</title>
<path fill="none" stroke="#56b9d8" stroke-width="2" d="M1666,-180C1666,-180 1595,-180 1595,-180 1589,-180 1583,-174 1583,-168 1583,-168 1583,-156 1583,-156 1583,-150 1589,-144 1595,-144 1595,-144 1666,-144 1666,-144 1672,-144 1678,-150 1678,-156 1678,-156 1678,-168 1678,-168 1678,-174 1672,-180 1666,-180"/>
<text text-anchor="middle" x="1630.5" y="-159.5" font-family="sans" font-size="10.00">multiqc_controls</text>
</g>
<!-- 22&#45;&gt;25 -->
<g id="edge62" class="edge"><title>22&#45;&gt;25</title>
<path fill="none" stroke="grey" stroke-width="2" d="M1596.62,-215.697C1601.86,-207.559 1608.2,-197.689 1613.98,-188.701"/>
<polygon fill="grey" stroke="grey" stroke-width="2" points="1617.04,-190.409 1619.5,-180.104 1611.15,-186.623 1617.04,-190.409"/>
</g>
<!-- 23 -->
<g id="node24" class="node"><title>23</title>
<path fill="none" stroke="#5663d8" stroke-width="2" d="M1512,-252C1512,-252 1455,-252 1455,-252 1449,-252 1443,-246 1443,-240 1443,-240 1443,-228 1443,-228 1443,-222 1449,-216 1455,-216 1455,-216 1512,-216 1512,-216 1518,-216 1524,-222 1524,-228 1524,-228 1524,-240 1524,-240 1524,-246 1518,-252 1512,-252"/>
<text text-anchor="middle" x="1483.5" y="-231.5" font-family="sans" font-size="10.00">mlst_controls</text>
</g>
<!-- 23&#45;&gt;0 -->
<g id="edge27" class="edge"><title>23&#45;&gt;0</title>
<path fill="none" stroke="grey" stroke-width="2" d="M1486.1,-215.775C1488.09,-196.947 1488.71,-166.469 1476.5,-144 1451.37,-97.7625 1431.62,-90.8919 1382.5,-72 1268.41,-28.1188 886.399,-20.5645 764.924,-19.2678"/>
<polygon fill="grey" stroke="grey" stroke-width="2" points="764.685,-15.7653 754.651,-19.1666 764.616,-22.765 764.685,-15.7653"/>
</g>
<!-- 24 -->
<g id="node25" class="node"><title>24</title>
<path fill="none" stroke="#5673d8" stroke-width="2" d="M1412.5,-252C1412.5,-252 1322.5,-252 1322.5,-252 1316.5,-252 1310.5,-246 1310.5,-240 1310.5,-240 1310.5,-228 1310.5,-228 1310.5,-222 1316.5,-216 1322.5,-216 1322.5,-216 1412.5,-216 1412.5,-216 1418.5,-216 1424.5,-222 1424.5,-228 1424.5,-228 1424.5,-240 1424.5,-240 1424.5,-246 1418.5,-252 1412.5,-252"/>
<text text-anchor="middle" x="1367.5" y="-231.5" font-family="sans" font-size="10.00">ezclermont_controls</text>
</g>
<!-- 24&#45;&gt;0 -->
<g id="edge26" class="edge"><title>24&#45;&gt;0</title>
<path fill="none" stroke="grey" stroke-width="2" d="M1417.06,-215.846C1433.19,-207.636 1449.3,-196.009 1458.5,-180 1466.47,-166.128 1467,-157.553 1458.5,-144 1419.41,-81.6986 1380.37,-91.6514 1309.5,-72 1206.14,-43.3418 876.524,-25.8694 764.883,-20.6541"/>
<polygon fill="grey" stroke="grey" stroke-width="2" points="764.925,-17.1524 754.774,-20.1877 764.602,-24.145 764.925,-17.1524"/>
</g>
<!-- 26 -->
<g id="node27" class="node"><title>26</title>
<path fill="none" stroke="#5682d8" stroke-width="2" d="M1438,-180C1438,-180 1297,-180 1297,-180 1291,-180 1285,-174 1285,-168 1285,-168 1285,-156 1285,-156 1285,-150 1291,-144 1297,-144 1297,-144 1438,-144 1438,-144 1444,-144 1450,-150 1450,-156 1450,-156 1450,-168 1450,-168 1450,-174 1444,-180 1438,-180"/>
<text text-anchor="middle" x="1367.5" y="-159.5" font-family="sans" font-size="10.00">ezclermont_summary_controls</text>
</g>
<!-- 24&#45;&gt;26 -->
<g id="edge63" class="edge"><title>24&#45;&gt;26</title>
<path fill="none" stroke="grey" stroke-width="2" d="M1367.5,-215.697C1367.5,-207.983 1367.5,-198.712 1367.5,-190.112"/>
<polygon fill="grey" stroke="grey" stroke-width="2" points="1371,-190.104 1367.5,-180.104 1364,-190.104 1371,-190.104"/>
</g>
<!-- 25&#45;&gt;0 -->
<g id="edge21" class="edge"><title>25&#45;&gt;0</title>
<path fill="none" stroke="grey" stroke-width="2" d="M1623.97,-143.673C1615.01,-122.601 1596.73,-87.8862 1568.5,-72 1497.84,-32.2334 918.935,-21.5957 764.984,-19.4581"/>
<polygon fill="grey" stroke="grey" stroke-width="2" points="764.693,-15.954 754.646,-19.3186 764.598,-22.9533 764.693,-15.954"/>
</g>
<!-- 26&#45;&gt;0 -->
<g id="edge25" class="edge"><title>26&#45;&gt;0</title>
<path fill="none" stroke="grey" stroke-width="2" d="M1354.62,-143.717C1337.84,-122.692 1306.4,-88.024 1270.5,-72 1179.58,-31.4113 871.743,-21.7434 764.618,-19.5842"/>
<polygon fill="grey" stroke="grey" stroke-width="2" points="764.665,-16.0845 754.599,-19.3926 764.531,-23.0832 764.665,-16.0845"/>
</g>
<!-- 26&#45;&gt;27 -->
<g id="edge65" class="edge"><title>26&#45;&gt;27</title>
<path fill="none" stroke="grey" stroke-width="2" d="M1284.78,-153.785C1181.41,-144.504 999.126,-127.264 843.5,-108 831.386,-106.501 818.583,-104.771 806.077,-103.001"/>
<polygon fill="grey" stroke="grey" stroke-width="2" points="806.525,-99.5293 796.13,-101.576 805.533,-106.459 806.525,-99.5293"/>
</g>
<!-- 27&#45;&gt;0 -->
<g id="edge7" class="edge"><title>27&#45;&gt;0</title>
<path fill="none" stroke="grey" stroke-width="2" d="M727.5,-71.6966C727.5,-63.9827 727.5,-54.7125 727.5,-46.1124"/>
<polygon fill="grey" stroke="grey" stroke-width="2" points="731,-46.1043 727.5,-36.1043 724,-46.1044 731,-46.1043"/>
</g>
<!-- 28 -->
<g id="node29" class="node"><title>28</title>
<path fill="none" stroke="#d87d56" stroke-width="2" d="M697.5,-684C697.5,-684 667.5,-684 667.5,-684 661.5,-684 655.5,-678 655.5,-672 655.5,-672 655.5,-660 655.5,-660 655.5,-654 661.5,-648 667.5,-648 667.5,-648 697.5,-648 697.5,-648 703.5,-648 709.5,-654 709.5,-660 709.5,-660 709.5,-672 709.5,-672 709.5,-678 703.5,-684 697.5,-684"/>
<text text-anchor="middle" x="682.5" y="-663.5" font-family="sans" font-size="10.00">fastp</text>
</g>
<!-- 28&#45;&gt;1 -->
<g id="edge28" class="edge"><title>28&#45;&gt;1</title>
<path fill="none" stroke="grey" stroke-width="2" d="M655.44,-664.96C532.611,-664.066 33.5,-652.468 33.5,-523 33.5,-523 33.5,-523 33.5,-305 33.5,-264.96 31.0893,-218.627 29.324,-190.065"/>
<polygon fill="grey" stroke="grey" stroke-width="2" points="32.8141,-189.797 28.6854,-180.039 25.8282,-190.242 32.8141,-189.797"/>
</g>
<!-- 28&#45;&gt;8 -->
<g id="edge35" class="edge"><title>28&#45;&gt;8</title>
<path fill="none" stroke="grey" stroke-width="2" d="M655.386,-658.782C601.805,-644.714 487.5,-605.083 487.5,-523 487.5,-523 487.5,-523 487.5,-233 487.5,-192.74 478.757,-146.808 472.294,-118.355"/>
<polygon fill="grey" stroke="grey" stroke-width="2" points="475.64,-117.293 469.952,-108.354 468.825,-118.889 475.64,-117.293"/>
</g>
<!-- 28&#45;&gt;11 -->
<g id="edge44" class="edge"><title>28&#45;&gt;11</title>
<path fill="none" stroke="grey" stroke-width="2" d="M709.753,-655.267C744.128,-642.99 803.368,-621.833 841.728,-608.133"/>
<polygon fill="grey" stroke="grey" stroke-width="2" points="843.238,-611.31 851.479,-604.651 840.884,-604.718 843.238,-611.31"/>
</g>
<!-- 28&#45;&gt;14 -->
<g id="edge47" class="edge"><title>28&#45;&gt;14</title>
<path fill="none" stroke="grey" stroke-width="2" d="M709.512,-663.646C781.237,-659.62 974.596,-645.829 1027.5,-612 1067.48,-586.434 1086.5,-570.458 1086.5,-523 1086.5,-523 1086.5,-523 1086.5,-449 1086.5,-408.987 1087.71,-362.646 1088.59,-334.076"/>
<polygon fill="grey" stroke="grey" stroke-width="2" points="1092.09,-334.153 1088.91,-324.047 1085.09,-333.93 1092.09,-334.153"/>
</g>
<!-- 29 -->
<g id="node30" class="node"><title>29</title>
<path fill="none" stroke="#d8c356" stroke-width="2" d="M319.5,-324C319.5,-324 289.5,-324 289.5,-324 283.5,-324 277.5,-318 277.5,-312 277.5,-312 277.5,-300 277.5,-300 277.5,-294 283.5,-288 289.5,-288 289.5,-288 319.5,-288 319.5,-288 325.5,-288 331.5,-294 331.5,-300 331.5,-300 331.5,-312 331.5,-312 331.5,-318 325.5,-324 319.5,-324"/>
<text text-anchor="middle" x="304.5" y="-303.5" font-family="sans" font-size="10.00">shovill</text>
</g>
<!-- 28&#45;&gt;29 -->
<g id="edge67" class="edge"><title>28&#45;&gt;29</title>
<path fill="none" stroke="grey" stroke-width="2" d="M655.345,-664.776C580.455,-662.591 376.5,-645.404 376.5,-523 376.5,-523 376.5,-523 376.5,-449 376.5,-404.355 347.838,-359.519 326.682,-332.505"/>
<polygon fill="grey" stroke="grey" stroke-width="2" points="329.129,-329.964 320.123,-324.383 323.683,-334.362 329.129,-329.964"/>
</g>
<!-- 32 -->
<g id="node33" class="node"><title>32</title>
<path fill="none" stroke="#61d856" stroke-width="2" d="M1006.5,-612C1006.5,-612 976.5,-612 976.5,-612 970.5,-612 964.5,-606 964.5,-600 964.5,-600 964.5,-588 964.5,-588 964.5,-582 970.5,-576 976.5,-576 976.5,-576 1006.5,-576 1006.5,-576 1012.5,-576 1018.5,-582 1018.5,-588 1018.5,-588 1018.5,-600 1018.5,-600 1018.5,-606 1012.5,-612 1006.5,-612"/>
<text text-anchor="middle" x="991.5" y="-591.5" font-family="sans" font-size="10.00">filtlong</text>
</g>
<!-- 28&#45;&gt;32 -->
<g id="edge71" class="edge"><title>28&#45;&gt;32</title>
<path fill="none" stroke="grey" stroke-width="2" d="M709.651,-658.849C765.033,-646.303 891.114,-617.741 954.159,-603.459"/>
<polygon fill="grey" stroke="grey" stroke-width="2" points="955.099,-606.835 964.079,-601.212 953.553,-600.008 955.099,-606.835"/>
</g>
<!-- 29&#45;&gt;2 -->
<g id="edge29" class="edge"><title>29&#45;&gt;2</title>
<path fill="none" stroke="grey" stroke-width="2" d="M331.827,-298.768C356.632,-291.667 392.323,-277.583 412.5,-252 426.255,-234.56 430.941,-209.515 432.367,-190.434"/>
<polygon fill="grey" stroke="grey" stroke-width="2" points="435.872,-190.422 432.867,-180.262 428.88,-190.078 435.872,-190.422"/>
</g>
<!-- 29&#45;&gt;3 -->
<g id="edge30" class="edge"><title>29&#45;&gt;3</title>
<path fill="none" stroke="grey" stroke-width="2" d="M277.369,-301.693C244.109,-296.397 187.605,-283.22 150.5,-252 131.077,-235.657 118.006,-209.562 110.284,-189.845"/>
<polygon fill="grey" stroke="grey" stroke-width="2" points="113.472,-188.372 106.728,-180.201 106.904,-190.794 113.472,-188.372"/>
</g>
<!-- 29&#45;&gt;4 -->
<g id="edge31" class="edge"><title>29&#45;&gt;4</title>
<path fill="none" stroke="grey" stroke-width="2" d="M277.434,-288.233C262.559,-279.019 243.908,-267.465 227.787,-257.479"/>
<polygon fill="grey" stroke="grey" stroke-width="2" points="229.475,-254.407 219.13,-252.116 225.788,-260.358 229.475,-254.407"/>
</g>
<!-- 29&#45;&gt;5 -->
<g id="edge32" class="edge"><title>29&#45;&gt;5</title>
<path fill="none" stroke="grey" stroke-width="2" d="M293.403,-287.871C277.447,-263.244 247.899,-217.638 229.27,-188.885"/>
<polygon fill="grey" stroke="grey" stroke-width="2" points="232.012,-186.679 223.637,-180.189 226.137,-190.485 232.012,-186.679"/>
</g>
<!-- 29&#45;&gt;6 -->
<g id="edge33" class="edge"><title>29&#45;&gt;6</title>
<path fill="none" stroke="grey" stroke-width="2" d="M306.671,-287.871C309.739,-263.67 315.375,-219.211 319.028,-190.393"/>
<polygon fill="grey" stroke="grey" stroke-width="2" points="322.536,-190.55 320.321,-180.189 315.591,-189.67 322.536,-190.55"/>
</g>
<!-- 29&#45;&gt;7 -->
<g id="edge34" class="edge"><title>29&#45;&gt;7</title>
<path fill="none" stroke="grey" stroke-width="2" d="M320.32,-287.697C328.07,-279.22 337.539,-268.864 346.024,-259.583"/>
<polygon fill="grey" stroke="grey" stroke-width="2" points="348.697,-261.846 352.862,-252.104 343.531,-257.123 348.697,-261.846"/>
</g>
<!-- 30&#45;&gt;12 -->
<g id="edge45" class="edge"><title>30&#45;&gt;12</title>
<path fill="none" stroke="grey" stroke-width="2" d="M883.997,-503.896C892.72,-474.286 907.657,-411.686 896.5,-360 894.539,-350.916 890.888,-341.517 887.015,-333.201"/>
<polygon fill="grey" stroke="grey" stroke-width="2" points="890.038,-331.42 882.454,-324.022 883.769,-334.534 890.038,-331.42"/>
</g>
<!-- 31 -->
<g id="node32" class="node"><title>31</title>
<path fill="none" stroke="#d8bc56" stroke-width="2" d="M876,-396C876,-396 815,-396 815,-396 809,-396 803,-390 803,-384 803,-384 803,-372 803,-372 803,-366 809,-360 815,-360 815,-360 876,-360 876,-360 882,-360 888,-366 888,-372 888,-372 888,-384 888,-384 888,-390 882,-396 876,-396"/>
<text text-anchor="middle" x="845.5" y="-375.5" font-family="sans" font-size="10.00">clonalframeml</text>
</g>
<!-- 30&#45;&gt;31 -->
<g id="edge69" class="edge"><title>30&#45;&gt;31</title>
<path fill="none" stroke="grey" stroke-width="2" d="M875.1,-503.883C871.472,-485.923 865.442,-456.896 859.5,-432 857.48,-423.539 855.118,-414.363 852.916,-406.061"/>
<polygon fill="grey" stroke="grey" stroke-width="2" points="856.223,-404.883 850.249,-396.133 849.463,-406.699 856.223,-404.883"/>
</g>
<!-- 36 -->
<g id="node37" class="node"><title>36</title>
<path fill="none" stroke="#88d856" stroke-width="2" d="M838.5,-468C838.5,-468 808.5,-468 808.5,-468 802.5,-468 796.5,-462 796.5,-456 796.5,-456 796.5,-444 796.5,-444 796.5,-438 802.5,-432 808.5,-432 808.5,-432 838.5,-432 838.5,-432 844.5,-432 850.5,-438 850.5,-444 850.5,-444 850.5,-456 850.5,-456 850.5,-462 844.5,-468 838.5,-468"/>
<text text-anchor="middle" x="823.5" y="-447.5" font-family="sans" font-size="10.00">iqtree</text>
</g>
<!-- 30&#45;&gt;36 -->
<g id="edge74" class="edge"><title>30&#45;&gt;36</title>
<path fill="none" stroke="grey" stroke-width="2" d="M864.904,-503.697C858.377,-495.389 850.432,-485.277 843.253,-476.141"/>
<polygon fill="grey" stroke="grey" stroke-width="2" points="845.869,-473.805 836.939,-468.104 840.365,-478.13 845.869,-473.805"/>
</g>
<!-- 31&#45;&gt;12 -->
<g id="edge46" class="edge"><title>31&#45;&gt;12</title>
<path fill="none" stroke="grey" stroke-width="2" d="M852.174,-359.697C855.215,-351.813 858.883,-342.304 862.261,-333.546"/>
<polygon fill="grey" stroke="grey" stroke-width="2" points="865.569,-334.694 865.903,-324.104 859.038,-332.175 865.569,-334.694"/>
</g>
<!-- 32&#45;&gt;14 -->
<g id="edge48" class="edge"><title>32&#45;&gt;14</title>
<path fill="none" stroke="grey" stroke-width="2" d="M1001.31,-575.702C1006.83,-565.519 1013.58,-552.269 1018.5,-540 1049.58,-462.476 1047.74,-439.769 1072.5,-360 1075.15,-351.47 1078.1,-342.192 1080.79,-333.817"/>
<polygon fill="grey" stroke="grey" stroke-width="2" points="1084.17,-334.751 1083.91,-324.16 1077.5,-332.602 1084.17,-334.751"/>
</g>
<!-- 33&#45;&gt;18 -->
<g id="edge54" class="edge"><title>33&#45;&gt;18</title>
<path fill="none" stroke="grey" stroke-width="2" d="M1094.69,-215.697C1097.03,-207.898 1099.85,-198.509 1102.45,-189.829"/>
<polygon fill="grey" stroke="grey" stroke-width="2" points="1105.85,-190.688 1105.37,-180.104 1099.14,-188.677 1105.85,-190.688"/>
</g>
<!-- 34 -->
<g id="node35" class="node"><title>34</title>
<path fill="none" stroke="#56d892" stroke-width="2" d="M1513.5,-396C1513.5,-396 1453.5,-396 1453.5,-396 1447.5,-396 1441.5,-390 1441.5,-384 1441.5,-384 1441.5,-372 1441.5,-372 1441.5,-366 1447.5,-360 1453.5,-360 1453.5,-360 1513.5,-360 1513.5,-360 1519.5,-360 1525.5,-366 1525.5,-372 1525.5,-372 1525.5,-384 1525.5,-384 1525.5,-390 1519.5,-396 1513.5,-396"/>
<text text-anchor="middle" x="1483.5" y="-375.5" font-family="sans" font-size="10.00">fastp_controls</text>
</g>
<!-- 34&#45;&gt;21 -->
<g id="edge57" class="edge"><title>34&#45;&gt;21</title>
<path fill="none" stroke="grey" stroke-width="2" d="M1442.16,-359.876C1418.95,-350.264 1389.81,-338.193 1365.23,-328.013"/>
<polygon fill="grey" stroke="grey" stroke-width="2" points="1366.29,-324.662 1355.71,-324.068 1363.61,-331.129 1366.29,-324.662"/>
</g>
<!-- 34&#45;&gt;25 -->
<g id="edge61" class="edge"><title>34&#45;&gt;25</title>
<path fill="none" stroke="grey" stroke-width="2" d="M1519.46,-359.927C1556.84,-339.946 1613.22,-302.986 1637.5,-252 1646.68,-232.727 1643.95,-208.43 1639.48,-190.093"/>
<polygon fill="grey" stroke="grey" stroke-width="2" points="1642.82,-189.046 1636.8,-180.33 1636.07,-190.9 1642.82,-189.046"/>
</g>
<!-- 35 -->
<g id="node36" class="node"><title>35</title>
<path fill="none" stroke="#97d856" stroke-width="2" d="M1516,-324C1516,-324 1451,-324 1451,-324 1445,-324 1439,-318 1439,-312 1439,-312 1439,-300 1439,-300 1439,-294 1445,-288 1451,-288 1451,-288 1516,-288 1516,-288 1522,-288 1528,-294 1528,-300 1528,-300 1528,-312 1528,-312 1528,-318 1522,-324 1516,-324"/>
<text text-anchor="middle" x="1483.5" y="-303.5" font-family="sans" font-size="10.00">shovill_controls</text>
</g>
<!-- 34&#45;&gt;35 -->
<g id="edge73" class="edge"><title>34&#45;&gt;35</title>
<path fill="none" stroke="grey" stroke-width="2" d="M1483.5,-359.697C1483.5,-351.983 1483.5,-342.712 1483.5,-334.112"/>
<polygon fill="grey" stroke="grey" stroke-width="2" points="1487,-334.104 1483.5,-324.104 1480,-334.104 1487,-334.104"/>
</g>
<!-- 35&#45;&gt;22 -->
<g id="edge58" class="edge"><title>35&#45;&gt;22</title>
<path fill="none" stroke="grey" stroke-width="2" d="M1508.45,-287.876C1521.54,-278.893 1537.76,-267.763 1551.94,-258.034"/>
<polygon fill="grey" stroke="grey" stroke-width="2" points="1554.19,-260.734 1560.45,-252.19 1550.23,-254.962 1554.19,-260.734"/>
</g>
<!-- 35&#45;&gt;23 -->
<g id="edge59" class="edge"><title>35&#45;&gt;23</title>
<path fill="none" stroke="grey" stroke-width="2" d="M1483.5,-287.697C1483.5,-279.983 1483.5,-270.712 1483.5,-262.112"/>
<polygon fill="grey" stroke="grey" stroke-width="2" points="1487,-262.104 1483.5,-252.104 1480,-262.104 1487,-262.104"/>
</g>
<!-- 35&#45;&gt;24 -->
<g id="edge60" class="edge"><title>35&#45;&gt;24</title>
<path fill="none" stroke="grey" stroke-width="2" d="M1455.12,-287.876C1439.96,-278.724 1421.09,-267.342 1404.76,-257.485"/>
<polygon fill="grey" stroke="grey" stroke-width="2" points="1406.36,-254.36 1395.99,-252.19 1402.74,-260.353 1406.36,-254.36"/>
</g>
<!-- 36&#45;&gt;31 -->
<g id="edge70" class="edge"><title>36&#45;&gt;31</title>
<path fill="none" stroke="grey" stroke-width="2" d="M828.938,-431.697C831.389,-423.898 834.34,-414.509 837.068,-405.829"/>
<polygon fill="grey" stroke="grey" stroke-width="2" points="840.465,-406.694 840.124,-396.104 833.787,-404.595 840.465,-406.694"/>
</g>
</g>
</svg>
